<?xml version="1.0" encoding="UTF-8" standalone="no"?><svg xmlns="http://www.w3.org/2000/svg" xmlns:xlink="http://www.w3.org/1999/xlink" contentScriptType="application/ecmascript" contentStyleType="text/css" height="1719px" preserveAspectRatio="none" style="width:1019px;height:1719px;" version="1.1" viewBox="0 0 1019 1719" width="1019px" zoomAndPan="magnify"><defs><filter height="300%" id="f6y0vsvwl0iak" width="300%" x="-1" y="-1"><feGaussianBlur result="blurOut" stdDeviation="2.0"/><feColorMatrix in="blurOut" result="blurOut2" type="matrix" values="0 0 0 0 0 0 0 0 0 0 0 0 0 0 0 0 0 0 .4 0"/><feOffset dx="4.0" dy="4.0" in="blurOut2" result="blurOut3"/><feBlend in="SourceGraphic" in2="blurOut3" mode="normal"/></filter></defs><g><text fill="#000000" font-family="sans-serif" font-size="14" font-weight="bold" lengthAdjust="spacingAndGlyphs" textLength="132" x="439.25" y="22.9951">Properties Value</text><rect fill="#FFFFFF" filter="url(#f6y0vsvwl0iak)" height="927.9766" style="stroke: #A80036; stroke-width: 1.0;" width="10" x="153" y="190.8594"/><rect fill="#FFFFFF" filter="url(#f6y0vsvwl0iak)" height="469.4609" style="stroke: #A80036; stroke-width: 1.0;" width="10" x="153" y="1220.2344"/><rect fill="#FFFFFF" filter="url(#f6y0vsvwl0iak)" height="109.7266" style="stroke: #A80036; stroke-width: 1.0;" width="10" x="324.5" y="214.8594"/><rect fill="#FFFFFF" filter="url(#f6y0vsvwl0iak)" height="188.8594" style="stroke: #A80036; stroke-width: 1.0;" width="10" x="324.5" y="353.7188"/><rect fill="#FFFFFF" filter="url(#f6y0vsvwl0iak)" height="70.4297" style="stroke: #A80036; stroke-width: 1.0;" width="10" x="329.5" y="390.7188"/><rect fill="#FFFFFF" filter="url(#f6y0vsvwl0iak)" height="100.3984" style="stroke: #A80036; stroke-width: 1.0;" width="10" x="324.5" y="571.7109"/><rect fill="#FFFFFF" filter="url(#f6y0vsvwl0iak)" height="388.4609" style="stroke: #A80036; stroke-width: 1.0;" width="10" x="324.5" y="701.2422"/><rect fill="#FFFFFF" filter="url(#f6y0vsvwl0iak)" height="271.9297" style="stroke: #A80036; stroke-width: 1.0;" width="10" x="329.5" y="759.5078"/><rect fill="#FFFFFF" filter="url(#f6y0vsvwl0iak)" height="72.2656" style="stroke: #A80036; stroke-width: 1.0;" width="10" x="334.5" y="889.0391"/><rect fill="#FFFFFF" filter="url(#f6y0vsvwl0iak)" height="355.1953" style="stroke: #A80036; stroke-width: 1.0;" width="10" x="324.5" y="1249.3672"/><rect fill="#FFFFFF" filter="url(#f6y0vsvwl0iak)" height="281.9297" style="stroke: #A80036; stroke-width: 1.0;" width="10" x="329.5" y="1286.3672"/><rect fill="#FFFFFF" filter="url(#f6y0vsvwl0iak)" height="43.1328" style="stroke: #A80036; stroke-width: 1.0;" width="10" x="334.5" y="1434.0313"/><rect fill="#FFFFFF" filter="url(#f6y0vsvwl0iak)" height="184.5313" style="stroke: #A80036; stroke-width: 1.0;" width="10" x="552.5" y="817.7734"/><rect fill="#FFFFFF" filter="url(#f6y0vsvwl0iak)" height="126.5313" style="stroke: #A80036; stroke-width: 1.0;" width="10" x="557.5" y="854.7734"/><rect fill="#FFFFFF" filter="url(#f6y0vsvwl0iak)" height="212.6641" style="stroke: #A80036; stroke-width: 1.0;" width="10" x="552.5" y="1320.6328"/><rect fill="#FFFFFF" filter="url(#f6y0vsvwl0iak)" height="97.3984" style="stroke: #A80036; stroke-width: 1.0;" width="10" x="557.5" y="1399.7656"/><rect fill="#FFFFFF" filter="url(#f6y0vsvwl0iak)" height="330.1953" style="stroke: #A80036; stroke-width: 1.0;" width="10" x="919" y="730.375"/><rect fill="#FEFECE" filter="url(#f6y0vsvwl0iak)" height="30.2969" style="stroke: #A80036; stroke-width: 1.5;" width="264" x="195.5" y="198.8594"/><text fill="#000000" font-family="sans-serif" font-size="14" lengthAdjust="spacingAndGlyphs" textLength="250" x="202.5" y="218.8545">XtextSiriusEefLifecycleManagerValue</text><rect fill="#FEFECE" filter="url(#f6y0vsvwl0iak)" height="30.2969" style="stroke: #A80036; stroke-width: 1.5;" width="164" x="473.5" y="244.1563"/><text fill="#000000" font-family="sans-serif" font-size="14" lengthAdjust="spacingAndGlyphs" textLength="150" x="480.5" y="264.1514">XtextSiriusValueEditor</text><rect fill="#FEFECE" filter="url(#f6y0vsvwl0iak)" height="30.2969" style="stroke: #A80036; stroke-width: 1.5;" width="172" x="659.5" y="403.8516"/><text fill="#000000" font-family="sans-serif" font-size="14" lengthAdjust="spacingAndGlyphs" textLength="158" x="666.5" y="423.8467">XtextSiriusWidgetValue</text><rect fill="#FEFECE" filter="url(#f6y0vsvwl0iak)" height="30.2969" style="stroke: #A80036; stroke-width: 1.5;" width="153" x="845.5" y="476.1484"/><text fill="#000000" font-family="sans-serif" font-size="14" lengthAdjust="spacingAndGlyphs" textLength="139" x="852.5" y="496.1436">XtextSiriusController</text><line style="stroke: #A80036; stroke-width: 1.0; stroke-dasharray: 5.0,5.0;" x1="27" x2="27" y1="116.5938" y2="1707.6953"/><line style="stroke: #A80036; stroke-width: 1.0; stroke-dasharray: 5.0,5.0;" x1="157.5" x2="157.5" y1="116.5938" y2="1707.6953"/><line style="stroke: #A80036; stroke-width: 1.0; stroke-dasharray: 5.0,5.0;" x1="329.5" x2="329.5" y1="231.5078" y2="1707.6953"/><line style="stroke: #A80036; stroke-width: 1.0; stroke-dasharray: 5.0,5.0;" x1="557.5" x2="557.5" y1="276.8047" y2="1707.6953"/><line style="stroke: #A80036; stroke-width: 1.0; stroke-dasharray: 5.0,5.0;" x1="747.5" x2="747.5" y1="436.5" y2="1707.6953"/><line style="stroke: #A80036; stroke-width: 1.0; stroke-dasharray: 5.0,5.0;" x1="923.5" x2="923.5" y1="508.7969" y2="1707.6953"/><text fill="#000000" font-family="sans-serif" font-size="14" lengthAdjust="spacingAndGlyphs" textLength="32" x="8" y="113.292">User</text><ellipse cx="27" cy="43.2969" fill="#FEFECE" filter="url(#f6y0vsvwl0iak)" rx="8" ry="8" style="stroke: #A80036; stroke-width: 2.0;"/><path d="M27,51.2969 L27,78.2969 M14,59.2969 L40,59.2969 M27,78.2969 L14,93.2969 M27,78.2969 L40,93.2969 " fill="none" filter="url(#f6y0vsvwl0iak)" style="stroke: #A80036; stroke-width: 2.0;"/><text fill="#000000" font-family="sans-serif" font-size="14" lengthAdjust="spacingAndGlyphs" textLength="49" x="130.5" y="113.292">Eclipse</text><ellipse cx="158" cy="84.2969" fill="#FEFECE" filter="url(#f6y0vsvwl0iak)" rx="12" ry="12" style="stroke: #A80036; stroke-width: 2.0;"/><polygon fill="#A80036" points="154,72.2969,160,67.2969,158,72.2969,160,77.2969,154,72.2969" style="stroke: #A80036; stroke-width: 1.0;"/><rect fill="#FFFFFF" filter="url(#f6y0vsvwl0iak)" height="927.9766" style="stroke: #A80036; stroke-width: 1.0;" width="10" x="153" y="190.8594"/><rect fill="#FFFFFF" filter="url(#f6y0vsvwl0iak)" height="469.4609" style="stroke: #A80036; stroke-width: 1.0;" width="10" x="153" y="1220.2344"/><rect fill="#FFFFFF" filter="url(#f6y0vsvwl0iak)" height="109.7266" style="stroke: #A80036; stroke-width: 1.0;" width="10" x="324.5" y="214.8594"/><rect fill="#FFFFFF" filter="url(#f6y0vsvwl0iak)" height="188.8594" style="stroke: #A80036; stroke-width: 1.0;" width="10" x="324.5" y="353.7188"/><rect fill="#FFFFFF" filter="url(#f6y0vsvwl0iak)" height="70.4297" style="stroke: #A80036; stroke-width: 1.0;" width="10" x="329.5" y="390.7188"/><rect fill="#FFFFFF" filter="url(#f6y0vsvwl0iak)" height="100.3984" style="stroke: #A80036; stroke-width: 1.0;" width="10" x="324.5" y="571.7109"/><rect fill="#FFFFFF" filter="url(#f6y0vsvwl0iak)" height="388.4609" style="stroke: #A80036; stroke-width: 1.0;" width="10" x="324.5" y="701.2422"/><rect fill="#FFFFFF" filter="url(#f6y0vsvwl0iak)" height="271.9297" style="stroke: #A80036; stroke-width: 1.0;" width="10" x="329.5" y="759.5078"/><rect fill="#FFFFFF" filter="url(#f6y0vsvwl0iak)" height="72.2656" style="stroke: #A80036; stroke-width: 1.0;" width="10" x="334.5" y="889.0391"/><rect fill="#FFFFFF" filter="url(#f6y0vsvwl0iak)" height="355.1953" style="stroke: #A80036; stroke-width: 1.0;" width="10" x="324.5" y="1249.3672"/><rect fill="#FFFFFF" filter="url(#f6y0vsvwl0iak)" height="281.9297" style="stroke: #A80036; stroke-width: 1.0;" width="10" x="329.5" y="1286.3672"/><rect fill="#FFFFFF" filter="url(#f6y0vsvwl0iak)" height="43.1328" style="stroke: #A80036; stroke-width: 1.0;" width="10" x="334.5" y="1434.0313"/><rect fill="#FFFFFF" filter="url(#f6y0vsvwl0iak)" height="184.5313" style="stroke: #A80036; stroke-width: 1.0;" width="10" x="552.5" y="817.7734"/><rect fill="#FFFFFF" filter="url(#f6y0vsvwl0iak)" height="126.5313" style="stroke: #A80036; stroke-width: 1.0;" width="10" x="557.5" y="854.7734"/><rect fill="#FFFFFF" filter="url(#f6y0vsvwl0iak)" height="212.6641" style="stroke: #A80036; stroke-width: 1.0;" width="10" x="552.5" y="1320.6328"/><rect fill="#FFFFFF" filter="url(#f6y0vsvwl0iak)" height="97.3984" style="stroke: #A80036; stroke-width: 1.0;" width="10" x="557.5" y="1399.7656"/><rect fill="#FFFFFF" filter="url(#f6y0vsvwl0iak)" height="330.1953" style="stroke: #A80036; stroke-width: 1.0;" width="10" x="919" y="730.375"/><rect fill="#EEEEEE" filter="url(#f6y0vsvwl0iak)" height="3" style="stroke: #EEEEEE; stroke-width: 1.0;" width="1004.5" x="3" y="147.1602"/><line style="stroke: #000000; stroke-width: 1.0;" x1="3" x2="1007.5" y1="147.1602" y2="147.1602"/><line style="stroke: #000000; stroke-width: 1.0;" x1="3" x2="1007.5" y1="150.1602" y2="150.1602"/><rect fill="#EEEEEE" filter="url(#f6y0vsvwl0iak)" height="23.1328" style="stroke: #000000; stroke-width: 2.0;" width="155" x="427.75" y="136.5938"/><text fill="#000000" font-family="sans-serif" font-size="13" font-weight="bold" lengthAdjust="spacingAndGlyphs" textLength="136" x="433.75" y="152.6606">Display Properties</text><polygon fill="#A80036" points="141,186.8594,151,190.8594,141,194.8594,145,190.8594" style="stroke: #A80036; stroke-width: 1.0;"/><line style="stroke: #A80036; stroke-width: 1.0;" x1="27" x2="147" y1="190.8594" y2="190.8594"/><text fill="#000000" font-family="sans-serif" font-size="13" lengthAdjust="spacingAndGlyphs" textLength="101" x="34" y="185.7935">open properties</text><polygon fill="#A80036" points="183.5,200.8594,193.5,204.8594,183.5,208.8594,187.5,204.8594" style="stroke: #A80036; stroke-width: 1.0;"/><line style="stroke: #A80036; stroke-width: 1.0;" x1="163" x2="189.5" y1="204.8594" y2="204.8594"/><rect fill="#FEFECE" filter="url(#f6y0vsvwl0iak)" height="30.2969" style="stroke: #A80036; stroke-width: 1.5;" width="264" x="195.5" y="198.8594"/><text fill="#000000" font-family="sans-serif" font-size="14" lengthAdjust="spacingAndGlyphs" textLength="250" x="202.5" y="218.8545">XtextSiriusEefLifecycleManagerValue</text><polygon fill="#A80036" points="461.5,246.1563,471.5,250.1563,461.5,254.1563,465.5,250.1563" style="stroke: #A80036; stroke-width: 1.0;"/><line style="stroke: #A80036; stroke-width: 1.0;" x1="334.5" x2="467.5" y1="250.1563" y2="250.1563"/><rect fill="#FEFECE" filter="url(#f6y0vsvwl0iak)" height="30.2969" style="stroke: #A80036; stroke-width: 1.5;" width="164" x="473.5" y="244.1563"/><text fill="#000000" font-family="sans-serif" font-size="14" lengthAdjust="spacingAndGlyphs" textLength="150" x="480.5" y="264.1514">XtextSiriusValueEditor</text><polygon fill="#A80036" points="545.5,306.5859,555.5,310.5859,545.5,314.5859,549.5,310.5859" style="stroke: #A80036; stroke-width: 1.0;"/><line style="stroke: #A80036; stroke-width: 1.0;" x1="334.5" x2="551.5" y1="310.5859" y2="310.5859"/><text fill="#000000" font-family="sans-serif" font-size="13" lengthAdjust="spacingAndGlyphs" textLength="106" x="341.5" y="305.52">setCallback(this)</text><polygon fill="#A80036" points="174,320.5859,164,324.5859,174,328.5859,170,324.5859" style="stroke: #A80036; stroke-width: 1.0;"/><line style="stroke: #A80036; stroke-width: 1.0; stroke-dasharray: 2.0,2.0;" x1="168" x2="328.5" y1="324.5859" y2="324.5859"/><polygon fill="#A80036" points="312.5,349.7188,322.5,353.7188,312.5,357.7188,316.5,353.7188" style="stroke: #A80036; stroke-width: 1.0;"/><line style="stroke: #A80036; stroke-width: 1.0;" x1="163" x2="318.5" y1="353.7188" y2="353.7188"/><text fill="#000000" font-family="sans-serif" font-size="13" lengthAdjust="spacingAndGlyphs" textLength="127" x="170" y="348.6528">createMainControl()</text><line style="stroke: #A80036; stroke-width: 1.0;" x1="334.5" x2="381.5" y1="377.8516" y2="377.8516"/><line style="stroke: #A80036; stroke-width: 1.0;" x1="381.5" x2="381.5" y1="377.8516" y2="390.8516"/><line style="stroke: #A80036; stroke-width: 1.0;" x1="340.5" x2="381.5" y1="390.8516" y2="390.8516"/><polygon fill="#A80036" points="350.5,386.8516,340.5,390.8516,350.5,394.8516,346.5,390.8516" style="stroke: #A80036; stroke-width: 1.0;"/><text fill="#000000" font-family="sans-serif" font-size="13" lengthAdjust="spacingAndGlyphs" textLength="162" x="346.5" y="372.7856">createXtextSiriusWidget()</text><polygon fill="#A80036" points="647.5,405.8516,657.5,409.8516,647.5,413.8516,651.5,409.8516" style="stroke: #A80036; stroke-width: 1.0;"/><line style="stroke: #A80036; stroke-width: 1.0;" x1="339.5" x2="653.5" y1="409.8516" y2="409.8516"/><rect fill="#FEFECE" filter="url(#f6y0vsvwl0iak)" height="30.2969" style="stroke: #A80036; stroke-width: 1.5;" width="172" x="659.5" y="403.8516"/><text fill="#000000" font-family="sans-serif" font-size="14" lengthAdjust="spacingAndGlyphs" textLength="158" x="666.5" y="423.8467">XtextSiriusWidgetValue</text><line style="stroke: #A80036; stroke-width: 1.0; stroke-dasharray: 2.0,2.0;" x1="339.5" x2="381.5" y1="460.1484" y2="460.1484"/><line style="stroke: #A80036; stroke-width: 1.0; stroke-dasharray: 2.0,2.0;" x1="381.5" x2="381.5" y1="460.1484" y2="473.1484"/><line style="stroke: #A80036; stroke-width: 1.0; stroke-dasharray: 2.0,2.0;" x1="334.5" x2="381.5" y1="473.1484" y2="473.1484"/><polygon fill="#A80036" points="344.5,469.1484,334.5,473.1484,344.5,477.1484,340.5,473.1484" style="stroke: #A80036; stroke-width: 1.0;"/><polygon fill="#A80036" points="833.5,478.1484,843.5,482.1484,833.5,486.1484,837.5,482.1484" style="stroke: #A80036; stroke-width: 1.0;"/><line style="stroke: #A80036; stroke-width: 1.0;" x1="334.5" x2="839.5" y1="482.1484" y2="482.1484"/><rect fill="#FEFECE" filter="url(#f6y0vsvwl0iak)" height="30.2969" style="stroke: #A80036; stroke-width: 1.5;" width="153" x="845.5" y="476.1484"/><text fill="#000000" font-family="sans-serif" font-size="14" lengthAdjust="spacingAndGlyphs" textLength="139" x="852.5" y="496.1436">XtextSiriusController</text><polygon fill="#A80036" points="174,538.5781,164,542.5781,174,546.5781,170,542.5781" style="stroke: #A80036; stroke-width: 1.0;"/><line style="stroke: #A80036; stroke-width: 1.0; stroke-dasharray: 2.0,2.0;" x1="168" x2="328.5" y1="542.5781" y2="542.5781"/><text fill="#000000" font-family="sans-serif" font-size="13" lengthAdjust="spacingAndGlyphs" textLength="127" x="180" y="537.5122">createMainControl()</text><polygon fill="#A80036" points="312.5,567.7109,322.5,571.7109,312.5,575.7109,316.5,571.7109" style="stroke: #A80036; stroke-width: 1.0;"/><line style="stroke: #A80036; stroke-width: 1.0;" x1="163" x2="318.5" y1="571.7109" y2="571.7109"/><text fill="#000000" font-family="sans-serif" font-size="13" lengthAdjust="spacingAndGlyphs" textLength="121" x="170" y="566.645">aboutToBeShown()</text><line style="stroke: #A80036; stroke-width: 1.0;" x1="334.5" x2="376.5" y1="600.8438" y2="600.8438"/><line style="stroke: #A80036; stroke-width: 1.0;" x1="376.5" x2="376.5" y1="600.8438" y2="613.8438"/><line style="stroke: #A80036; stroke-width: 1.0;" x1="335.5" x2="376.5" y1="613.8438" y2="613.8438"/><polygon fill="#A80036" points="345.5,609.8438,335.5,613.8438,345.5,617.8438,341.5,613.8438" style="stroke: #A80036; stroke-width: 1.0;"/><text fill="#000000" font-family="sans-serif" font-size="13" lengthAdjust="spacingAndGlyphs" textLength="180" x="341.5" y="595.7778">createNewValueConsumer()</text><polygon fill="#A80036" points="912,638.9766,922,642.9766,912,646.9766,916,642.9766" style="stroke: #A80036; stroke-width: 1.0;"/><line style="stroke: #A80036; stroke-width: 1.0;" x1="334.5" x2="918" y1="642.9766" y2="642.9766"/><text fill="#000000" font-family="sans-serif" font-size="13" lengthAdjust="spacingAndGlyphs" textLength="89" x="341.5" y="637.9106">onNewValue()</text><polygon fill="#A80036" points="174,668.1094,164,672.1094,174,676.1094,170,672.1094" style="stroke: #A80036; stroke-width: 1.0;"/><line style="stroke: #A80036; stroke-width: 1.0; stroke-dasharray: 2.0,2.0;" x1="168" x2="328.5" y1="672.1094" y2="672.1094"/><text fill="#000000" font-family="sans-serif" font-size="13" lengthAdjust="spacingAndGlyphs" textLength="121" x="180" y="667.0435">aboutToBeShown()</text><polygon fill="#A80036" points="312.5,697.2422,322.5,701.2422,312.5,705.2422,316.5,701.2422" style="stroke: #A80036; stroke-width: 1.0;"/><line style="stroke: #A80036; stroke-width: 1.0;" x1="163" x2="318.5" y1="701.2422" y2="701.2422"/><text fill="#000000" font-family="sans-serif" font-size="13" lengthAdjust="spacingAndGlyphs" textLength="55" x="170" y="696.1763">refresh()</text><polygon fill="#A80036" points="907,726.375,917,730.375,907,734.375,911,730.375" style="stroke: #A80036; stroke-width: 1.0;"/><line style="stroke: #A80036; stroke-width: 1.0;" x1="334.5" x2="913" y1="730.375" y2="730.375"/><text fill="#000000" font-family="sans-serif" font-size="13" lengthAdjust="spacingAndGlyphs" textLength="55" x="341.5" y="725.3091">refresh()</text><polygon fill="#A80036" points="350.5,755.5078,340.5,759.5078,350.5,763.5078,346.5,759.5078" style="stroke: #A80036; stroke-width: 1.0;"/><line style="stroke: #A80036; stroke-width: 1.0;" x1="344.5" x2="918" y1="759.5078" y2="759.5078"/><text fill="#000000" font-family="sans-serif" font-size="13" lengthAdjust="spacingAndGlyphs" textLength="137" x="356.5" y="754.4419">newValueConsumer()</text><polygon fill="#A80036" points="545.5,784.6406,555.5,788.6406,545.5,792.6406,549.5,788.6406" style="stroke: #A80036; stroke-width: 1.0;"/><line style="stroke: #A80036; stroke-width: 1.0;" x1="339.5" x2="551.5" y1="788.6406" y2="788.6406"/><text fill="#000000" font-family="sans-serif" font-size="13" lengthAdjust="spacingAndGlyphs" textLength="144" x="346.5" y="783.5747">setSemanticElement()</text><polygon fill="#A80036" points="540.5,813.7734,550.5,817.7734,540.5,821.7734,544.5,817.7734" style="stroke: #A80036; stroke-width: 1.0;"/><line style="stroke: #A80036; stroke-width: 1.0;" x1="339.5" x2="546.5" y1="817.7734" y2="817.7734"/><text fill="#000000" font-family="sans-serif" font-size="13" lengthAdjust="spacingAndGlyphs" textLength="84" x="346.5" y="812.7075">doSetValue()</text><line style="stroke: #A80036; stroke-width: 1.0;" x1="562.5" x2="609.5" y1="841.9063" y2="841.9063"/><line style="stroke: #A80036; stroke-width: 1.0;" x1="609.5" x2="609.5" y1="841.9063" y2="854.9063"/><line style="stroke: #A80036; stroke-width: 1.0;" x1="568.5" x2="609.5" y1="854.9063" y2="854.9063"/><polygon fill="#A80036" points="578.5,850.9063,568.5,854.9063,578.5,858.9063,574.5,854.9063" style="stroke: #A80036; stroke-width: 1.0;"/><text fill="#000000" font-family="sans-serif" font-size="13" lengthAdjust="spacingAndGlyphs" textLength="166" x="574.5" y="836.8403">updateCallbackSetValue()</text><polygon fill="#A80036" points="355.5,885.0391,345.5,889.0391,355.5,893.0391,351.5,889.0391" style="stroke: #A80036; stroke-width: 1.0;"/><line style="stroke: #A80036; stroke-width: 1.0;" x1="349.5" x2="556.5" y1="889.0391" y2="889.0391"/><text fill="#000000" font-family="sans-serif" font-size="13" lengthAdjust="spacingAndGlyphs" textLength="119" x="361.5" y="883.9731">callbackSetValue()</text><polygon fill="#A80036" points="735.5,914.1719,745.5,918.1719,735.5,922.1719,739.5,918.1719" style="stroke: #A80036; stroke-width: 1.0;"/><line style="stroke: #A80036; stroke-width: 1.0;" x1="344.5" x2="741.5" y1="918.1719" y2="918.1719"/><text fill="#000000" font-family="sans-serif" font-size="13" lengthAdjust="spacingAndGlyphs" textLength="55" x="351.5" y="913.106">update()</text><polygon fill="#A80036" points="735.5,943.3047,745.5,947.3047,735.5,951.3047,739.5,947.3047" style="stroke: #A80036; stroke-width: 1.0;"/><line style="stroke: #A80036; stroke-width: 1.0;" x1="344.5" x2="741.5" y1="947.3047" y2="947.3047"/><text fill="#000000" font-family="sans-serif" font-size="13" lengthAdjust="spacingAndGlyphs" textLength="73" x="351.5" y="942.2388">updateUri()</text><polygon fill="#A80036" points="545.5,957.3047,555.5,961.3047,545.5,965.3047,549.5,961.3047" style="stroke: #A80036; stroke-width: 1.0;"/><line style="stroke: #A80036; stroke-width: 1.0; stroke-dasharray: 2.0,2.0;" x1="339.5" x2="551.5" y1="961.3047" y2="961.3047"/><line style="stroke: #A80036; stroke-width: 1.0; stroke-dasharray: 2.0,2.0;" x1="567.5" x2="609.5" y1="980.3047" y2="980.3047"/><line style="stroke: #A80036; stroke-width: 1.0; stroke-dasharray: 2.0,2.0;" x1="609.5" x2="609.5" y1="980.3047" y2="993.3047"/><line style="stroke: #A80036; stroke-width: 1.0; stroke-dasharray: 2.0,2.0;" x1="562.5" x2="609.5" y1="993.3047" y2="993.3047"/><polygon fill="#A80036" points="572.5,989.3047,562.5,993.3047,572.5,997.3047,568.5,993.3047" style="stroke: #A80036; stroke-width: 1.0;"/><polygon fill="#A80036" points="350.5,998.3047,340.5,1002.3047,350.5,1006.3047,346.5,1002.3047" style="stroke: #A80036; stroke-width: 1.0;"/><line style="stroke: #A80036; stroke-width: 1.0; stroke-dasharray: 2.0,2.0;" x1="344.5" x2="556.5" y1="1002.3047" y2="1002.3047"/><polygon fill="#A80036" points="907,1027.4375,917,1031.4375,907,1035.4375,911,1031.4375" style="stroke: #A80036; stroke-width: 1.0;"/><line style="stroke: #A80036; stroke-width: 1.0; stroke-dasharray: 2.0,2.0;" x1="334.5" x2="913" y1="1031.4375" y2="1031.4375"/><text fill="#000000" font-family="sans-serif" font-size="13" lengthAdjust="spacingAndGlyphs" textLength="137" x="341.5" y="1026.3716">newValueConsumer()</text><polygon fill="#A80036" points="345.5,1056.5703,335.5,1060.5703,345.5,1064.5703,341.5,1060.5703" style="stroke: #A80036; stroke-width: 1.0;"/><line style="stroke: #A80036; stroke-width: 1.0; stroke-dasharray: 2.0,2.0;" x1="339.5" x2="923" y1="1060.5703" y2="1060.5703"/><text fill="#000000" font-family="sans-serif" font-size="13" lengthAdjust="spacingAndGlyphs" textLength="55" x="351.5" y="1055.5044">refresh()</text><polygon fill="#A80036" points="174,1085.7031,164,1089.7031,174,1093.7031,170,1089.7031" style="stroke: #A80036; stroke-width: 1.0;"/><line style="stroke: #A80036; stroke-width: 1.0; stroke-dasharray: 2.0,2.0;" x1="168" x2="328.5" y1="1089.7031" y2="1089.7031"/><text fill="#000000" font-family="sans-serif" font-size="13" lengthAdjust="spacingAndGlyphs" textLength="55" x="180" y="1084.6372">refresh()</text><polygon fill="#A80036" points="38,1114.8359,28,1118.8359,38,1122.8359,34,1118.8359" style="stroke: #A80036; stroke-width: 1.0;"/><line style="stroke: #A80036; stroke-width: 1.0; stroke-dasharray: 2.0,2.0;" x1="32" x2="157" y1="1118.8359" y2="1118.8359"/><text fill="#000000" font-family="sans-serif" font-size="13" lengthAdjust="spacingAndGlyphs" textLength="101" x="44" y="1113.77">open properties</text><polygon fill="#A80036" points="146,1143.9688,156,1147.9688,146,1151.9688,150,1147.9688" style="stroke: #A80036; stroke-width: 1.0;"/><line style="stroke: #A80036; stroke-width: 1.0;" x1="27" x2="152" y1="1147.9688" y2="1147.9688"/><text fill="#000000" font-family="sans-serif" font-size="13" lengthAdjust="spacingAndGlyphs" textLength="76" x="34" y="1142.9028">change text</text><rect fill="#EEEEEE" filter="url(#f6y0vsvwl0iak)" height="3" style="stroke: #EEEEEE; stroke-width: 1.0;" width="1004.5" x="3" y="1176.5352"/><line style="stroke: #000000; stroke-width: 1.0;" x1="3" x2="1007.5" y1="1176.5352" y2="1176.5352"/><line style="stroke: #000000; stroke-width: 1.0;" x1="3" x2="1007.5" y1="1179.5352" y2="1179.5352"/><rect fill="#EEEEEE" filter="url(#f6y0vsvwl0iak)" height="23.1328" style="stroke: #000000; stroke-width: 2.0;" width="135" x="437.75" y="1165.9688"/><text fill="#000000" font-family="sans-serif" font-size="13" font-weight="bold" lengthAdjust="spacingAndGlyphs" textLength="116" x="443.75" y="1182.0356">Hide Properties</text><polygon fill="#A80036" points="141,1216.2344,151,1220.2344,141,1224.2344,145,1220.2344" style="stroke: #A80036; stroke-width: 1.0;"/><line style="stroke: #A80036; stroke-width: 1.0;" x1="27" x2="147" y1="1220.2344" y2="1220.2344"/><text fill="#000000" font-family="sans-serif" font-size="13" lengthAdjust="spacingAndGlyphs" textLength="102" x="34" y="1215.1685">close properties</text><polygon fill="#A80036" points="312.5,1245.3672,322.5,1249.3672,312.5,1253.3672,316.5,1249.3672" style="stroke: #A80036; stroke-width: 1.0;"/><line style="stroke: #A80036; stroke-width: 1.0;" x1="163" x2="318.5" y1="1249.3672" y2="1249.3672"/><text fill="#000000" font-family="sans-serif" font-size="13" lengthAdjust="spacingAndGlyphs" textLength="124" x="170" y="1244.3013">aboutToBeHidden()</text><line style="stroke: #A80036; stroke-width: 1.0;" x1="334.5" x2="381.5" y1="1273.5" y2="1273.5"/><line style="stroke: #A80036; stroke-width: 1.0;" x1="381.5" x2="381.5" y1="1273.5" y2="1286.5"/><line style="stroke: #A80036; stroke-width: 1.0;" x1="340.5" x2="381.5" y1="1286.5" y2="1286.5"/><polygon fill="#A80036" points="350.5,1282.5,340.5,1286.5,350.5,1290.5,346.5,1286.5" style="stroke: #A80036; stroke-width: 1.0;"/><text fill="#000000" font-family="sans-serif" font-size="13" lengthAdjust="spacingAndGlyphs" textLength="59" x="346.5" y="1268.4341">commit()</text><polygon fill="#A80036" points="540.5,1316.6328,550.5,1320.6328,540.5,1324.6328,544.5,1320.6328" style="stroke: #A80036; stroke-width: 1.0;"/><line style="stroke: #A80036; stroke-width: 1.0;" x1="339.5" x2="546.5" y1="1320.6328" y2="1320.6328"/><text fill="#000000" font-family="sans-serif" font-size="13" lengthAdjust="spacingAndGlyphs" textLength="59" x="346.5" y="1315.5669">commit()</text><line style="stroke: #A80036; stroke-width: 1.0;" x1="562.5" x2="604.5" y1="1349.7656" y2="1349.7656"/><line style="stroke: #A80036; stroke-width: 1.0;" x1="604.5" x2="604.5" y1="1349.7656" y2="1362.7656"/><line style="stroke: #A80036; stroke-width: 1.0;" x1="563.5" x2="604.5" y1="1362.7656" y2="1362.7656"/><polygon fill="#A80036" points="573.5,1358.7656,563.5,1362.7656,573.5,1366.7656,569.5,1362.7656" style="stroke: #A80036; stroke-width: 1.0;"/><text fill="#000000" font-family="sans-serif" font-size="13" lengthAdjust="spacingAndGlyphs" textLength="90" x="569.5" y="1344.6997">adjustTarget()</text><line style="stroke: #A80036; stroke-width: 1.0;" x1="562.5" x2="609.5" y1="1386.8984" y2="1386.8984"/><line style="stroke: #A80036; stroke-width: 1.0;" x1="609.5" x2="609.5" y1="1386.8984" y2="1399.8984"/><line style="stroke: #A80036; stroke-width: 1.0;" x1="568.5" x2="609.5" y1="1399.8984" y2="1399.8984"/><polygon fill="#A80036" points="578.5,1395.8984,568.5,1399.8984,578.5,1403.8984,574.5,1399.8984" style="stroke: #A80036; stroke-width: 1.0;"/><text fill="#000000" font-family="sans-serif" font-size="13" lengthAdjust="spacingAndGlyphs" textLength="133" x="574.5" y="1381.8325">getValueToCommit()</text><polygon fill="#A80036" points="355.5,1430.0313,345.5,1434.0313,355.5,1438.0313,351.5,1434.0313" style="stroke: #A80036; stroke-width: 1.0;"/><line style="stroke: #A80036; stroke-width: 1.0;" x1="349.5" x2="556.5" y1="1434.0313" y2="1434.0313"/><text fill="#000000" font-family="sans-serif" font-size="13" lengthAdjust="spacingAndGlyphs" textLength="67" x="361.5" y="1428.9653">getValue()</text><polygon fill="#A80036" points="735.5,1459.1641,745.5,1463.1641,735.5,1467.1641,739.5,1463.1641" style="stroke: #A80036; stroke-width: 1.0;"/><line style="stroke: #A80036; stroke-width: 1.0;" x1="344.5" x2="741.5" y1="1463.1641" y2="1463.1641"/><text fill="#000000" font-family="sans-serif" font-size="13" lengthAdjust="spacingAndGlyphs" textLength="58" x="351.5" y="1458.0981">getText()</text><polygon fill="#A80036" points="545.5,1473.1641,555.5,1477.1641,545.5,1481.1641,549.5,1477.1641" style="stroke: #A80036; stroke-width: 1.0;"/><line style="stroke: #A80036; stroke-width: 1.0; stroke-dasharray: 2.0,2.0;" x1="339.5" x2="551.5" y1="1477.1641" y2="1477.1641"/><line style="stroke: #A80036; stroke-width: 1.0; stroke-dasharray: 2.0,2.0;" x1="567.5" x2="609.5" y1="1496.1641" y2="1496.1641"/><line style="stroke: #A80036; stroke-width: 1.0; stroke-dasharray: 2.0,2.0;" x1="609.5" x2="609.5" y1="1496.1641" y2="1509.1641"/><line style="stroke: #A80036; stroke-width: 1.0; stroke-dasharray: 2.0,2.0;" x1="562.5" x2="609.5" y1="1509.1641" y2="1509.1641"/><polygon fill="#A80036" points="572.5,1505.1641,562.5,1509.1641,572.5,1513.1641,568.5,1509.1641" style="stroke: #A80036; stroke-width: 1.0;"/><polygon fill="#A80036" points="350.5,1529.2969,340.5,1533.2969,350.5,1537.2969,346.5,1533.2969" style="stroke: #A80036; stroke-width: 1.0;"/><line style="stroke: #A80036; stroke-width: 1.0; stroke-dasharray: 2.0,2.0;" x1="344.5" x2="556.5" y1="1533.2969" y2="1533.2969"/><text fill="#000000" font-family="sans-serif" font-size="13" lengthAdjust="spacingAndGlyphs" textLength="59" x="356.5" y="1528.231">commit()</text><line style="stroke: #A80036; stroke-width: 1.0; stroke-dasharray: 2.0,2.0;" x1="339.5" x2="381.5" y1="1567.4297" y2="1567.4297"/><line style="stroke: #A80036; stroke-width: 1.0; stroke-dasharray: 2.0,2.0;" x1="381.5" x2="381.5" y1="1567.4297" y2="1580.4297"/><line style="stroke: #A80036; stroke-width: 1.0; stroke-dasharray: 2.0,2.0;" x1="334.5" x2="381.5" y1="1580.4297" y2="1580.4297"/><polygon fill="#A80036" points="344.5,1576.4297,334.5,1580.4297,344.5,1584.4297,340.5,1580.4297" style="stroke: #A80036; stroke-width: 1.0;"/><text fill="#000000" font-family="sans-serif" font-size="13" lengthAdjust="spacingAndGlyphs" textLength="59" x="346.5" y="1562.3638">commit()</text><polygon fill="#A80036" points="174,1600.5625,164,1604.5625,174,1608.5625,170,1604.5625" style="stroke: #A80036; stroke-width: 1.0;"/><line style="stroke: #A80036; stroke-width: 1.0; stroke-dasharray: 2.0,2.0;" x1="168" x2="328.5" y1="1604.5625" y2="1604.5625"/><text fill="#000000" font-family="sans-serif" font-size="13" lengthAdjust="spacingAndGlyphs" textLength="124" x="180" y="1599.4966">aboutToBeHidden()</text><polygon fill="#A80036" points="317.5,1614.5625,327.5,1618.5625,317.5,1622.5625,321.5,1618.5625" style="stroke: #A80036; stroke-width: 1.0;"/><line style="stroke: #A80036; stroke-width: 1.0;" x1="163" x2="323.5" y1="1618.5625" y2="1618.5625"/><line style="stroke: #A80036; stroke-width: 2.0;" x1="320.5" x2="338.5" y1="1609.5625" y2="1627.5625"/><line style="stroke: #A80036; stroke-width: 2.0;" x1="320.5" x2="338.5" y1="1627.5625" y2="1609.5625"/><polygon fill="#A80036" points="545.5,1628.5625,555.5,1632.5625,545.5,1636.5625,549.5,1632.5625" style="stroke: #A80036; stroke-width: 1.0;"/><line style="stroke: #A80036; stroke-width: 1.0;" x1="329.5" x2="551.5" y1="1632.5625" y2="1632.5625"/><line style="stroke: #A80036; stroke-width: 2.0;" x1="548.5" x2="566.5" y1="1623.5625" y2="1641.5625"/><line style="stroke: #A80036; stroke-width: 2.0;" x1="548.5" x2="566.5" y1="1641.5625" y2="1623.5625"/><polygon fill="#A80036" points="735.5,1642.5625,745.5,1646.5625,735.5,1650.5625,739.5,1646.5625" style="stroke: #A80036; stroke-width: 1.0;"/><line style="stroke: #A80036; stroke-width: 1.0;" x1="329.5" x2="741.5" y1="1646.5625" y2="1646.5625"/><line style="stroke: #A80036; stroke-width: 2.0;" x1="738.5" x2="756.5" y1="1637.5625" y2="1655.5625"/><line style="stroke: #A80036; stroke-width: 2.0;" x1="738.5" x2="756.5" y1="1655.5625" y2="1637.5625"/><polygon fill="#A80036" points="912,1656.5625,922,1660.5625,912,1664.5625,916,1660.5625" style="stroke: #A80036; stroke-width: 1.0;"/><line style="stroke: #A80036; stroke-width: 1.0;" x1="329.5" x2="918" y1="1660.5625" y2="1660.5625"/><line style="stroke: #A80036; stroke-width: 2.0;" x1="915" x2="933" y1="1651.5625" y2="1669.5625"/><line style="stroke: #A80036; stroke-width: 2.0;" x1="915" x2="933" y1="1669.5625" y2="1651.5625"/><polygon fill="#A80036" points="38,1685.6953,28,1689.6953,38,1693.6953,34,1689.6953" style="stroke: #A80036; stroke-width: 1.0;"/><line style="stroke: #A80036; stroke-width: 1.0; stroke-dasharray: 2.0,2.0;" x1="32" x2="157" y1="1689.6953" y2="1689.6953"/><text fill="#000000" font-family="sans-serif" font-size="13" lengthAdjust="spacingAndGlyphs" textLength="102" x="44" y="1684.6294">close properties</text><!--
@startuml
hide footbox

actor User as user

control Eclipse as eclipse

participant "XtextSiriusEefLifecycleManagerValue" as widgetMgr
participant "XtextSiriusValueEditor" as editor
participant "XtextSiriusWidgetValue" as widget
participant "XtextSiriusController" as controller

title Properties Value

== Display Properties ==

user -> eclipse ++: open properties

	eclipse -> widgetMgr **
	activate widgetMgr
		widgetMgr -> editor **
		widgetMgr -> editor:setCallback(this)
	return

	eclipse -> widgetMgr ++: createMainControl()
		widgetMgr -> widgetMgr ++: createXtextSiriusWidget()
			widgetMgr -> widget **
		return
		widgetMgr -> controller **
	return createMainControl()

	eclipse -> widgetMgr ++: aboutToBeShown()
		widgetMgr -> widgetMgr: createNewValueConsumer()
		widgetMgr -> controller: onNewValue()
	return aboutToBeShown()

	eclipse -> widgetMgr ++: refresh()
		widgetMgr -> controller ++: refresh()
			controller -> widgetMgr ++: newValueConsumer()
				widgetMgr -> editor: setSemanticElement()
				widgetMgr -> editor ++: doSetValue()
					editor -> editor ++: updateCallbackSetValue()
						editor -> widgetMgr ++: callbackSetValue()
							widgetMgr -> widget: update()
							widgetMgr -> widget: updateUri()
						return
					return
				return
			return newValueConsumer()
		return refresh()
	return refresh()

return open properties

user -> eclipse: change text

== Hide Properties ==

user -> eclipse ++: close properties

	eclipse -> widgetMgr ++: aboutToBeHidden()
		widgetMgr -> widgetMgr ++: commit()
			widgetMgr -> editor ++: commit()
				editor -> editor: adjustTarget()
				editor -> editor ++: getValueToCommit()
					editor -> widgetMgr ++: getValue()
						widgetMgr -> widget: getText()
					return
				return
			return commit()
		return commit()
	return aboutToBeHidden()

	eclipse -> widgetMgr !!
	widgetMgr -> editor !!
	widgetMgr -> widget !!
	widgetMgr -> controller !!

return close properties
@enduml

PlantUML version 1.2018.13(Mon Nov 26 17:11:51 GMT 2018)
(APACHE source distribution)
Java Runtime: OpenJDK Runtime Environment
JVM: OpenJDK 64-Bit Server VM
Java Version: 1.8.0_191-8u191-b12-2ubuntu0.16.04.1-b12
Operating System: Linux
OS Version: 4.4.0-43-Microsoft
Default Encoding: UTF-8
Language: en
Country: US
--></g></svg>