<?xml version="1.0" encoding="UTF-8" standalone="no"?><svg xmlns="http://www.w3.org/2000/svg" xmlns:xlink="http://www.w3.org/1999/xlink" contentScriptType="application/ecmascript" contentStyleType="text/css" height="1863px" preserveAspectRatio="none" style="width:1107px;height:1863px;" version="1.1" viewBox="0 0 1107 1863" width="1107px" zoomAndPan="magnify"><defs><filter height="300%" id="f1484dd7c78sxv" width="300%" x="-1" y="-1"><feGaussianBlur result="blurOut" stdDeviation="2.0"/><feColorMatrix in="blurOut" result="blurOut2" type="matrix" values="0 0 0 0 0 0 0 0 0 0 0 0 0 0 0 0 0 0 .4 0"/><feOffset dx="4.0" dy="4.0" in="blurOut2" result="blurOut3"/><feBlend in="SourceGraphic" in2="blurOut3" mode="normal"/></filter></defs><g><rect fill="#FFFFFF" filter="url(#f1484dd7c78sxv)" height="997.3828" style="stroke: #A80036; stroke-width: 1.0;" width="10" x="161" y="160.5625"/><rect fill="#FFFFFF" filter="url(#f1484dd7c78sxv)" height="574.1563" style="stroke: #A80036; stroke-width: 1.0;" width="10" x="161" y="1259.3438"/><rect fill="#FFFFFF" filter="url(#f1484dd7c78sxv)" height="939.1172" style="stroke: #A80036; stroke-width: 1.0;" width="10" x="326" y="189.6953"/><rect fill="#FFFFFF" filter="url(#f1484dd7c78sxv)" height="158.8594" style="stroke: #A80036; stroke-width: 1.0;" width="10" x="331" y="226.6953"/><rect fill="#FFFFFF" filter="url(#f1484dd7c78sxv)" height="663.125" style="stroke: #A80036; stroke-width: 1.0;" width="10" x="331" y="429.5547"/><rect fill="#FFFFFF" filter="url(#f1484dd7c78sxv)" height="169.6641" style="stroke: #A80036; stroke-width: 1.0;" width="10" x="336" y="471.6875"/><rect fill="#FFFFFF" filter="url(#f1484dd7c78sxv)" height="380.3281" style="stroke: #A80036; stroke-width: 1.0;" width="10" x="336" y="685.3516"/><rect fill="#FFFFFF" filter="url(#f1484dd7c78sxv)" height="487.8906" style="stroke: #A80036; stroke-width: 1.0;" width="10" x="326" y="1288.4766"/><rect fill="#FFFFFF" filter="url(#f1484dd7c78sxv)" height="414.625" style="stroke: #A80036; stroke-width: 1.0;" width="10" x="331" y="1325.4766"/><rect fill="#FFFFFF" filter="url(#f1484dd7c78sxv)" height="109.7266" style="stroke: #A80036; stroke-width: 1.0;" width="10" x="596" y="255.8281"/><rect fill="#FFFFFF" filter="url(#f1484dd7c78sxv)" height="43.1328" style="stroke: #A80036; stroke-width: 1.0;" width="10" x="596" y="505.9531"/><rect fill="#FFFFFF" filter="url(#f1484dd7c78sxv)" height="43.1328" style="stroke: #A80036; stroke-width: 1.0;" width="10" x="596" y="578.2188"/><rect fill="#FFFFFF" filter="url(#f1484dd7c78sxv)" height="326.0625" style="stroke: #A80036; stroke-width: 1.0;" width="10" x="596" y="719.6172"/><rect fill="#FFFFFF" filter="url(#f1484dd7c78sxv)" height="140.3984" style="stroke: #A80036; stroke-width: 1.0;" width="10" x="601" y="820.0156"/><rect fill="#FFFFFF" filter="url(#f1484dd7c78sxv)" height="227.7969" style="stroke: #A80036; stroke-width: 1.0;" width="10" x="596" y="1434.1719"/><rect fill="#FFFFFF" filter="url(#f1484dd7c78sxv)" height="267.7969" style="stroke: #A80036; stroke-width: 1.0;" width="10" x="822.5" y="748.75"/><rect fill="#FFFFFF" filter="url(#f1484dd7c78sxv)" height="194.6641" style="stroke: #A80036; stroke-width: 1.0;" width="10" x="827.5" y="785.75"/><rect fill="#FFFFFF" filter="url(#f1484dd7c78sxv)" height="169.5313" style="stroke: #A80036; stroke-width: 1.0;" width="10" x="822.5" y="1463.3047"/><rect fill="#FFFFFF" filter="url(#f1484dd7c78sxv)" height="54.2656" style="stroke: #A80036; stroke-width: 1.0;" width="10" x="827.5" y="1542.4375"/><rect fill="#FFFFFF" filter="url(#f1484dd7c78sxv)" height="286.0625" style="stroke: #A80036; stroke-width: 1.0;" width="10" x="1012.5" y="1405.0391"/><rect fill="#FEFECE" filter="url(#f1484dd7c78sxv)" height="30.2969" style="stroke: #A80036; stroke-width: 1.5;" width="261" x="468.5" y="239.8281"/><text fill="#000000" font-family="sans-serif" font-size="14" lengthAdjust="spacingAndGlyphs" textLength="247" x="475.5" y="259.8232">XtextSiriusStyledTextCellEditorValue</text><rect fill="#FEFECE" filter="url(#f1484dd7c78sxv)" height="30.2969" style="stroke: #A80036; stroke-width: 1.5;" width="164" x="743.5" y="285.125"/><text fill="#000000" font-family="sans-serif" font-size="14" lengthAdjust="spacingAndGlyphs" textLength="150" x="750.5" y="305.1201">XtextSiriusValueEditor</text><rect fill="#FEFECE" filter="url(#f1484dd7c78sxv)" height="30.2969" style="stroke: #A80036; stroke-width: 1.5;" width="141" x="945" y="1338.6094"/><text fill="#000000" font-family="sans-serif" font-size="14" lengthAdjust="spacingAndGlyphs" textLength="127" x="952" y="1358.6045">ReplaceValueTask</text><line style="stroke: #A80036; stroke-width: 1.0; stroke-dasharray: 5.0,5.0;" x1="27" x2="27" y1="86.2969" y2="1851.5"/><line style="stroke: #A80036; stroke-width: 1.0; stroke-dasharray: 5.0,5.0;" x1="165.5" x2="165.5" y1="86.2969" y2="1851.5"/><line style="stroke: #A80036; stroke-width: 1.0; stroke-dasharray: 5.0,5.0;" x1="330.5" x2="330.5" y1="86.2969" y2="1851.5"/><line style="stroke: #A80036; stroke-width: 1.0; stroke-dasharray: 5.0,5.0;" x1="600.5" x2="600.5" y1="272.4766" y2="1851.5"/><line style="stroke: #A80036; stroke-width: 1.0; stroke-dasharray: 5.0,5.0;" x1="827.5" x2="827.5" y1="317.7734" y2="1851.5"/><line style="stroke: #A80036; stroke-width: 1.0; stroke-dasharray: 5.0,5.0;" x1="1017" x2="1017" y1="1371.2578" y2="1851.5"/><text fill="#000000" font-family="sans-serif" font-size="14" lengthAdjust="spacingAndGlyphs" textLength="32" x="8" y="82.9951">User</text><ellipse cx="27" cy="13" fill="#FEFECE" filter="url(#f1484dd7c78sxv)" rx="8" ry="8" style="stroke: #A80036; stroke-width: 2.0;"/><path d="M27,21 L27,48 M14,29 L40,29 M27,48 L14,63 M27,48 L40,63 " fill="none" filter="url(#f1484dd7c78sxv)" style="stroke: #A80036; stroke-width: 2.0;"/><text fill="#000000" font-family="sans-serif" font-size="14" lengthAdjust="spacingAndGlyphs" textLength="49" x="138.5" y="82.9951">Eclipse</text><ellipse cx="166" cy="54" fill="#FEFECE" filter="url(#f1484dd7c78sxv)" rx="12" ry="12" style="stroke: #A80036; stroke-width: 2.0;"/><polygon fill="#A80036" points="162,42,168,37,166,42,168,47,162,42" style="stroke: #A80036; stroke-width: 1.0;"/><rect fill="#FEFECE" filter="url(#f1484dd7c78sxv)" height="30.2969" style="stroke: #A80036; stroke-width: 1.5;" width="251" x="203.5" y="51"/><text fill="#000000" font-family="sans-serif" font-size="14" lengthAdjust="spacingAndGlyphs" textLength="237" x="210.5" y="70.9951">XtextSiriusDirectEditManagerValue</text><rect fill="#FFFFFF" filter="url(#f1484dd7c78sxv)" height="997.3828" style="stroke: #A80036; stroke-width: 1.0;" width="10" x="161" y="160.5625"/><rect fill="#FFFFFF" filter="url(#f1484dd7c78sxv)" height="574.1563" style="stroke: #A80036; stroke-width: 1.0;" width="10" x="161" y="1259.3438"/><rect fill="#FFFFFF" filter="url(#f1484dd7c78sxv)" height="939.1172" style="stroke: #A80036; stroke-width: 1.0;" width="10" x="326" y="189.6953"/><rect fill="#FFFFFF" filter="url(#f1484dd7c78sxv)" height="158.8594" style="stroke: #A80036; stroke-width: 1.0;" width="10" x="331" y="226.6953"/><rect fill="#FFFFFF" filter="url(#f1484dd7c78sxv)" height="663.125" style="stroke: #A80036; stroke-width: 1.0;" width="10" x="331" y="429.5547"/><rect fill="#FFFFFF" filter="url(#f1484dd7c78sxv)" height="169.6641" style="stroke: #A80036; stroke-width: 1.0;" width="10" x="336" y="471.6875"/><rect fill="#FFFFFF" filter="url(#f1484dd7c78sxv)" height="380.3281" style="stroke: #A80036; stroke-width: 1.0;" width="10" x="336" y="685.3516"/><rect fill="#FFFFFF" filter="url(#f1484dd7c78sxv)" height="487.8906" style="stroke: #A80036; stroke-width: 1.0;" width="10" x="326" y="1288.4766"/><rect fill="#FFFFFF" filter="url(#f1484dd7c78sxv)" height="414.625" style="stroke: #A80036; stroke-width: 1.0;" width="10" x="331" y="1325.4766"/><rect fill="#FFFFFF" filter="url(#f1484dd7c78sxv)" height="109.7266" style="stroke: #A80036; stroke-width: 1.0;" width="10" x="596" y="255.8281"/><rect fill="#FFFFFF" filter="url(#f1484dd7c78sxv)" height="43.1328" style="stroke: #A80036; stroke-width: 1.0;" width="10" x="596" y="505.9531"/><rect fill="#FFFFFF" filter="url(#f1484dd7c78sxv)" height="43.1328" style="stroke: #A80036; stroke-width: 1.0;" width="10" x="596" y="578.2188"/><rect fill="#FFFFFF" filter="url(#f1484dd7c78sxv)" height="326.0625" style="stroke: #A80036; stroke-width: 1.0;" width="10" x="596" y="719.6172"/><rect fill="#FFFFFF" filter="url(#f1484dd7c78sxv)" height="140.3984" style="stroke: #A80036; stroke-width: 1.0;" width="10" x="601" y="820.0156"/><rect fill="#FFFFFF" filter="url(#f1484dd7c78sxv)" height="227.7969" style="stroke: #A80036; stroke-width: 1.0;" width="10" x="596" y="1434.1719"/><rect fill="#FFFFFF" filter="url(#f1484dd7c78sxv)" height="267.7969" style="stroke: #A80036; stroke-width: 1.0;" width="10" x="822.5" y="748.75"/><rect fill="#FFFFFF" filter="url(#f1484dd7c78sxv)" height="194.6641" style="stroke: #A80036; stroke-width: 1.0;" width="10" x="827.5" y="785.75"/><rect fill="#FFFFFF" filter="url(#f1484dd7c78sxv)" height="169.5313" style="stroke: #A80036; stroke-width: 1.0;" width="10" x="822.5" y="1463.3047"/><rect fill="#FFFFFF" filter="url(#f1484dd7c78sxv)" height="54.2656" style="stroke: #A80036; stroke-width: 1.0;" width="10" x="827.5" y="1542.4375"/><rect fill="#FFFFFF" filter="url(#f1484dd7c78sxv)" height="286.0625" style="stroke: #A80036; stroke-width: 1.0;" width="10" x="1012.5" y="1405.0391"/><rect fill="#EEEEEE" filter="url(#f1484dd7c78sxv)" height="3" style="stroke: #EEEEEE; stroke-width: 1.0;" width="1092" x="3" y="116.8633"/><line style="stroke: #000000; stroke-width: 1.0;" x1="3" x2="1095" y1="116.8633" y2="116.8633"/><line style="stroke: #000000; stroke-width: 1.0;" x1="3" x2="1095" y1="119.8633" y2="119.8633"/><rect fill="#EEEEEE" filter="url(#f1484dd7c78sxv)" height="23.1328" style="stroke: #000000; stroke-width: 2.0;" width="141" x="478.5" y="106.2969"/><text fill="#000000" font-family="sans-serif" font-size="13" font-weight="bold" lengthAdjust="spacingAndGlyphs" textLength="122" x="484.5" y="122.3638">Open Direct Edit</text><polygon fill="#A80036" points="149,156.5625,159,160.5625,149,164.5625,153,160.5625" style="stroke: #A80036; stroke-width: 1.0;"/><line style="stroke: #A80036; stroke-width: 1.0;" x1="27" x2="155" y1="160.5625" y2="160.5625"/><text fill="#000000" font-family="sans-serif" font-size="13" lengthAdjust="spacingAndGlyphs" textLength="74" x="34" y="155.4966">double click</text><polygon fill="#A80036" points="314,185.6953,324,189.6953,314,193.6953,318,189.6953" style="stroke: #A80036; stroke-width: 1.0;"/><line style="stroke: #A80036; stroke-width: 1.0;" x1="171" x2="320" y1="189.6953" y2="189.6953"/><text fill="#000000" font-family="sans-serif" font-size="13" lengthAdjust="spacingAndGlyphs" textLength="42" x="178" y="184.6294">show()</text><line style="stroke: #A80036; stroke-width: 1.0;" x1="336" x2="383" y1="213.8281" y2="213.8281"/><line style="stroke: #A80036; stroke-width: 1.0;" x1="383" x2="383" y1="213.8281" y2="226.8281"/><line style="stroke: #A80036; stroke-width: 1.0;" x1="342" x2="383" y1="226.8281" y2="226.8281"/><polygon fill="#A80036" points="352,222.8281,342,226.8281,352,230.8281,348,226.8281" style="stroke: #A80036; stroke-width: 1.0;"/><text fill="#000000" font-family="sans-serif" font-size="13" lengthAdjust="spacingAndGlyphs" textLength="111" x="348" y="208.7622">createCellEditor()</text><polygon fill="#A80036" points="456.5,241.8281,466.5,245.8281,456.5,249.8281,460.5,245.8281" style="stroke: #A80036; stroke-width: 1.0;"/><line style="stroke: #A80036; stroke-width: 1.0;" x1="341" x2="462.5" y1="245.8281" y2="245.8281"/><rect fill="#FEFECE" filter="url(#f1484dd7c78sxv)" height="30.2969" style="stroke: #A80036; stroke-width: 1.5;" width="261" x="468.5" y="239.8281"/><text fill="#000000" font-family="sans-serif" font-size="14" lengthAdjust="spacingAndGlyphs" textLength="247" x="475.5" y="259.8232">XtextSiriusStyledTextCellEditorValue</text><polygon fill="#A80036" points="731.5,287.125,741.5,291.125,731.5,295.125,735.5,291.125" style="stroke: #A80036; stroke-width: 1.0;"/><line style="stroke: #A80036; stroke-width: 1.0;" x1="606" x2="737.5" y1="291.125" y2="291.125"/><rect fill="#FEFECE" filter="url(#f1484dd7c78sxv)" height="30.2969" style="stroke: #A80036; stroke-width: 1.5;" width="164" x="743.5" y="285.125"/><text fill="#000000" font-family="sans-serif" font-size="14" lengthAdjust="spacingAndGlyphs" textLength="150" x="750.5" y="305.1201">XtextSiriusValueEditor</text><polygon fill="#A80036" points="815.5,347.5547,825.5,351.5547,815.5,355.5547,819.5,351.5547" style="stroke: #A80036; stroke-width: 1.0;"/><line style="stroke: #A80036; stroke-width: 1.0;" x1="606" x2="821.5" y1="351.5547" y2="351.5547"/><text fill="#000000" font-family="sans-serif" font-size="13" lengthAdjust="spacingAndGlyphs" textLength="106" x="613" y="346.4888">setCallback(this)</text><polygon fill="#A80036" points="352,361.5547,342,365.5547,352,369.5547,348,365.5547" style="stroke: #A80036; stroke-width: 1.0;"/><line style="stroke: #A80036; stroke-width: 1.0; stroke-dasharray: 2.0,2.0;" x1="346" x2="600" y1="365.5547" y2="365.5547"/><line style="stroke: #A80036; stroke-width: 1.0; stroke-dasharray: 2.0,2.0;" x1="341" x2="383" y1="384.5547" y2="384.5547"/><line style="stroke: #A80036; stroke-width: 1.0; stroke-dasharray: 2.0,2.0;" x1="383" x2="383" y1="384.5547" y2="397.5547"/><line style="stroke: #A80036; stroke-width: 1.0; stroke-dasharray: 2.0,2.0;" x1="336" x2="383" y1="397.5547" y2="397.5547"/><polygon fill="#A80036" points="346,393.5547,336,397.5547,346,401.5547,342,397.5547" style="stroke: #A80036; stroke-width: 1.0;"/><line style="stroke: #A80036; stroke-width: 1.0;" x1="336" x2="383" y1="416.6875" y2="416.6875"/><line style="stroke: #A80036; stroke-width: 1.0;" x1="383" x2="383" y1="416.6875" y2="429.6875"/><line style="stroke: #A80036; stroke-width: 1.0;" x1="342" x2="383" y1="429.6875" y2="429.6875"/><polygon fill="#A80036" points="352,425.6875,342,429.6875,352,433.6875,348,429.6875" style="stroke: #A80036; stroke-width: 1.0;"/><text fill="#000000" font-family="sans-serif" font-size="13" lengthAdjust="spacingAndGlyphs" textLength="89" x="348" y="411.6216">initCellEditor()</text><line style="stroke: #A80036; stroke-width: 1.0;" x1="341" x2="388" y1="458.8203" y2="458.8203"/><line style="stroke: #A80036; stroke-width: 1.0;" x1="388" x2="388" y1="458.8203" y2="471.8203"/><line style="stroke: #A80036; stroke-width: 1.0;" x1="347" x2="388" y1="471.8203" y2="471.8203"/><polygon fill="#A80036" points="357,467.8203,347,471.8203,357,475.8203,353,471.8203" style="stroke: #A80036; stroke-width: 1.0;"/><text fill="#000000" font-family="sans-serif" font-size="13" lengthAdjust="spacingAndGlyphs" textLength="144" x="353" y="453.7544">setSemanticElement()</text><polygon fill="#A80036" points="584,501.9531,594,505.9531,584,509.9531,588,505.9531" style="stroke: #A80036; stroke-width: 1.0;"/><line style="stroke: #A80036; stroke-width: 1.0;" x1="346" x2="590" y1="505.9531" y2="505.9531"/><text fill="#000000" font-family="sans-serif" font-size="13" lengthAdjust="spacingAndGlyphs" textLength="144" x="353" y="500.8872">setSemanticElement()</text><polygon fill="#A80036" points="815.5,531.0859,825.5,535.0859,815.5,539.0859,819.5,535.0859" style="stroke: #A80036; stroke-width: 1.0;"/><line style="stroke: #A80036; stroke-width: 1.0;" x1="606" x2="821.5" y1="535.0859" y2="535.0859"/><text fill="#000000" font-family="sans-serif" font-size="13" lengthAdjust="spacingAndGlyphs" textLength="144" x="613" y="530.02">setSemanticElement()</text><polygon fill="#A80036" points="357,545.0859,347,549.0859,357,553.0859,353,549.0859" style="stroke: #A80036; stroke-width: 1.0;"/><line style="stroke: #A80036; stroke-width: 1.0; stroke-dasharray: 2.0,2.0;" x1="351" x2="600" y1="549.0859" y2="549.0859"/><polygon fill="#A80036" points="584,574.2188,594,578.2188,584,582.2188,588,578.2188" style="stroke: #A80036; stroke-width: 1.0;"/><line style="stroke: #A80036; stroke-width: 1.0;" x1="346" x2="590" y1="578.2188" y2="578.2188"/><text fill="#000000" font-family="sans-serif" font-size="13" lengthAdjust="spacingAndGlyphs" textLength="143" x="353" y="573.1528">setFallbackContainer()</text><polygon fill="#A80036" points="815.5,603.3516,825.5,607.3516,815.5,611.3516,819.5,607.3516" style="stroke: #A80036; stroke-width: 1.0;"/><line style="stroke: #A80036; stroke-width: 1.0;" x1="606" x2="821.5" y1="607.3516" y2="607.3516"/><text fill="#000000" font-family="sans-serif" font-size="13" lengthAdjust="spacingAndGlyphs" textLength="143" x="613" y="602.2856">setFallbackContainer()</text><polygon fill="#A80036" points="357,617.3516,347,621.3516,357,625.3516,353,621.3516" style="stroke: #A80036; stroke-width: 1.0;"/><line style="stroke: #A80036; stroke-width: 1.0; stroke-dasharray: 2.0,2.0;" x1="351" x2="600" y1="621.3516" y2="621.3516"/><line style="stroke: #A80036; stroke-width: 1.0; stroke-dasharray: 2.0,2.0;" x1="346" x2="388" y1="640.3516" y2="640.3516"/><line style="stroke: #A80036; stroke-width: 1.0; stroke-dasharray: 2.0,2.0;" x1="388" x2="388" y1="640.3516" y2="653.3516"/><line style="stroke: #A80036; stroke-width: 1.0; stroke-dasharray: 2.0,2.0;" x1="341" x2="388" y1="653.3516" y2="653.3516"/><polygon fill="#A80036" points="351,649.3516,341,653.3516,351,657.3516,347,653.3516" style="stroke: #A80036; stroke-width: 1.0;"/><line style="stroke: #A80036; stroke-width: 1.0;" x1="341" x2="388" y1="672.4844" y2="672.4844"/><line style="stroke: #A80036; stroke-width: 1.0;" x1="388" x2="388" y1="672.4844" y2="685.4844"/><line style="stroke: #A80036; stroke-width: 1.0;" x1="347" x2="388" y1="685.4844" y2="685.4844"/><polygon fill="#A80036" points="357,681.4844,347,685.4844,357,689.4844,353,685.4844" style="stroke: #A80036; stroke-width: 1.0;"/><text fill="#000000" font-family="sans-serif" font-size="13" lengthAdjust="spacingAndGlyphs" textLength="81" x="353" y="667.4185">setEditText()</text><polygon fill="#A80036" points="584,715.6172,594,719.6172,584,723.6172,588,719.6172" style="stroke: #A80036; stroke-width: 1.0;"/><line style="stroke: #A80036; stroke-width: 1.0;" x1="346" x2="590" y1="719.6172" y2="719.6172"/><text fill="#000000" font-family="sans-serif" font-size="13" lengthAdjust="spacingAndGlyphs" textLength="84" x="353" y="714.5513">doSetValue()</text><polygon fill="#A80036" points="810.5,744.75,820.5,748.75,810.5,752.75,814.5,748.75" style="stroke: #A80036; stroke-width: 1.0;"/><line style="stroke: #A80036; stroke-width: 1.0;" x1="606" x2="816.5" y1="748.75" y2="748.75"/><text fill="#000000" font-family="sans-serif" font-size="13" lengthAdjust="spacingAndGlyphs" textLength="84" x="613" y="743.6841">doSetValue()</text><line style="stroke: #A80036; stroke-width: 1.0;" x1="832.5" x2="879.5" y1="772.8828" y2="772.8828"/><line style="stroke: #A80036; stroke-width: 1.0;" x1="879.5" x2="879.5" y1="772.8828" y2="785.8828"/><line style="stroke: #A80036; stroke-width: 1.0;" x1="838.5" x2="879.5" y1="785.8828" y2="785.8828"/><polygon fill="#A80036" points="848.5,781.8828,838.5,785.8828,848.5,789.8828,844.5,785.8828" style="stroke: #A80036; stroke-width: 1.0;"/><text fill="#000000" font-family="sans-serif" font-size="13" lengthAdjust="spacingAndGlyphs" textLength="166" x="844.5" y="767.8169">updateCallbackSetValue()</text><polygon fill="#A80036" points="622,816.0156,612,820.0156,622,824.0156,618,820.0156" style="stroke: #A80036; stroke-width: 1.0;"/><line style="stroke: #A80036; stroke-width: 1.0;" x1="616" x2="826.5" y1="820.0156" y2="820.0156"/><text fill="#000000" font-family="sans-serif" font-size="13" lengthAdjust="spacingAndGlyphs" textLength="119" x="628" y="814.9497">callbackSetValue()</text><line style="stroke: #A80036; stroke-width: 1.0;" x1="611" x2="653" y1="849.1484" y2="849.1484"/><line style="stroke: #A80036; stroke-width: 1.0;" x1="653" x2="653" y1="849.1484" y2="862.1484"/><line style="stroke: #A80036; stroke-width: 1.0;" x1="612" x2="653" y1="862.1484" y2="862.1484"/><polygon fill="#A80036" points="622,858.1484,612,862.1484,622,866.1484,618,862.1484" style="stroke: #A80036; stroke-width: 1.0;"/><text fill="#000000" font-family="sans-serif" font-size="13" lengthAdjust="spacingAndGlyphs" textLength="124" x="618" y="844.0825">super.doSetValue()</text><line style="stroke: #A80036; stroke-width: 1.0;" x1="611" x2="653" y1="891.2813" y2="891.2813"/><line style="stroke: #A80036; stroke-width: 1.0;" x1="653" x2="653" y1="891.2813" y2="904.2813"/><line style="stroke: #A80036; stroke-width: 1.0;" x1="612" x2="653" y1="904.2813" y2="904.2813"/><polygon fill="#A80036" points="622,900.2813,612,904.2813,622,908.2813,618,904.2813" style="stroke: #A80036; stroke-width: 1.0;"/><text fill="#000000" font-family="sans-serif" font-size="13" lengthAdjust="spacingAndGlyphs" textLength="114" x="618" y="886.2153">setVisibleRegion()</text><line style="stroke: #A80036; stroke-width: 1.0;" x1="611" x2="653" y1="933.4141" y2="933.4141"/><line style="stroke: #A80036; stroke-width: 1.0;" x1="653" x2="653" y1="933.4141" y2="946.4141"/><line style="stroke: #A80036; stroke-width: 1.0;" x1="612" x2="653" y1="946.4141" y2="946.4141"/><polygon fill="#A80036" points="622,942.4141,612,946.4141,622,950.4141,618,946.4141" style="stroke: #A80036; stroke-width: 1.0;"/><text fill="#000000" font-family="sans-serif" font-size="13" lengthAdjust="spacingAndGlyphs" textLength="162" x="618" y="928.3481">updateFakeResourceUri()</text><polygon fill="#A80036" points="815.5,956.4141,825.5,960.4141,815.5,964.4141,819.5,960.4141" style="stroke: #A80036; stroke-width: 1.0;"/><line style="stroke: #A80036; stroke-width: 1.0; stroke-dasharray: 2.0,2.0;" x1="606" x2="821.5" y1="960.4141" y2="960.4141"/><line style="stroke: #A80036; stroke-width: 1.0; stroke-dasharray: 2.0,2.0;" x1="837.5" x2="879.5" y1="979.4141" y2="979.4141"/><line style="stroke: #A80036; stroke-width: 1.0; stroke-dasharray: 2.0,2.0;" x1="879.5" x2="879.5" y1="979.4141" y2="992.4141"/><line style="stroke: #A80036; stroke-width: 1.0; stroke-dasharray: 2.0,2.0;" x1="832.5" x2="879.5" y1="992.4141" y2="992.4141"/><polygon fill="#A80036" points="842.5,988.4141,832.5,992.4141,842.5,996.4141,838.5,992.4141" style="stroke: #A80036; stroke-width: 1.0;"/><polygon fill="#A80036" points="617,1012.5469,607,1016.5469,617,1020.5469,613,1016.5469" style="stroke: #A80036; stroke-width: 1.0;"/><line style="stroke: #A80036; stroke-width: 1.0; stroke-dasharray: 2.0,2.0;" x1="611" x2="826.5" y1="1016.5469" y2="1016.5469"/><text fill="#000000" font-family="sans-serif" font-size="13" lengthAdjust="spacingAndGlyphs" textLength="84" x="623" y="1011.481">doSetValue()</text><polygon fill="#A80036" points="357,1041.6797,347,1045.6797,357,1049.6797,353,1045.6797" style="stroke: #A80036; stroke-width: 1.0;"/><line style="stroke: #A80036; stroke-width: 1.0; stroke-dasharray: 2.0,2.0;" x1="351" x2="600" y1="1045.6797" y2="1045.6797"/><text fill="#000000" font-family="sans-serif" font-size="13" lengthAdjust="spacingAndGlyphs" textLength="84" x="363" y="1040.6138">doSetValue()</text><line style="stroke: #A80036; stroke-width: 1.0; stroke-dasharray: 2.0,2.0;" x1="346" x2="388" y1="1064.6797" y2="1064.6797"/><line style="stroke: #A80036; stroke-width: 1.0; stroke-dasharray: 2.0,2.0;" x1="388" x2="388" y1="1064.6797" y2="1077.6797"/><line style="stroke: #A80036; stroke-width: 1.0; stroke-dasharray: 2.0,2.0;" x1="341" x2="388" y1="1077.6797" y2="1077.6797"/><polygon fill="#A80036" points="351,1073.6797,341,1077.6797,351,1081.6797,347,1077.6797" style="stroke: #A80036; stroke-width: 1.0;"/><line style="stroke: #A80036; stroke-width: 1.0; stroke-dasharray: 2.0,2.0;" x1="341" x2="383" y1="1091.6797" y2="1091.6797"/><line style="stroke: #A80036; stroke-width: 1.0; stroke-dasharray: 2.0,2.0;" x1="383" x2="383" y1="1091.6797" y2="1104.6797"/><line style="stroke: #A80036; stroke-width: 1.0; stroke-dasharray: 2.0,2.0;" x1="336" x2="383" y1="1104.6797" y2="1104.6797"/><polygon fill="#A80036" points="346,1100.6797,336,1104.6797,346,1108.6797,342,1104.6797" style="stroke: #A80036; stroke-width: 1.0;"/><polygon fill="#A80036" points="182,1124.8125,172,1128.8125,182,1132.8125,178,1128.8125" style="stroke: #A80036; stroke-width: 1.0;"/><line style="stroke: #A80036; stroke-width: 1.0; stroke-dasharray: 2.0,2.0;" x1="176" x2="330" y1="1128.8125" y2="1128.8125"/><text fill="#000000" font-family="sans-serif" font-size="13" lengthAdjust="spacingAndGlyphs" textLength="42" x="188" y="1123.7466">show()</text><polygon fill="#A80036" points="38,1153.9453,28,1157.9453,38,1161.9453,34,1157.9453" style="stroke: #A80036; stroke-width: 1.0;"/><line style="stroke: #A80036; stroke-width: 1.0; stroke-dasharray: 2.0,2.0;" x1="32" x2="165" y1="1157.9453" y2="1157.9453"/><text fill="#000000" font-family="sans-serif" font-size="13" lengthAdjust="spacingAndGlyphs" textLength="74" x="44" y="1152.8794">double click</text><polygon fill="#A80036" points="154,1183.0781,164,1187.0781,154,1191.0781,158,1187.0781" style="stroke: #A80036; stroke-width: 1.0;"/><line style="stroke: #A80036; stroke-width: 1.0;" x1="27" x2="160" y1="1187.0781" y2="1187.0781"/><text fill="#000000" font-family="sans-serif" font-size="13" lengthAdjust="spacingAndGlyphs" textLength="76" x="34" y="1182.0122">change text</text><rect fill="#EEEEEE" filter="url(#f1484dd7c78sxv)" height="3" style="stroke: #EEEEEE; stroke-width: 1.0;" width="1092" x="3" y="1215.6445"/><line style="stroke: #000000; stroke-width: 1.0;" x1="3" x2="1095" y1="1215.6445" y2="1215.6445"/><line style="stroke: #000000; stroke-width: 1.0;" x1="3" x2="1095" y1="1218.6445" y2="1218.6445"/><rect fill="#EEEEEE" filter="url(#f1484dd7c78sxv)" height="23.1328" style="stroke: #000000; stroke-width: 2.0;" width="142" x="478" y="1205.0781"/><text fill="#000000" font-family="sans-serif" font-size="13" font-weight="bold" lengthAdjust="spacingAndGlyphs" textLength="123" x="484" y="1221.145">Close Direct Edit</text><polygon fill="#A80036" points="149,1255.3438,159,1259.3438,149,1263.3438,153,1259.3438" style="stroke: #A80036; stroke-width: 1.0;"/><line style="stroke: #A80036; stroke-width: 1.0;" x1="27" x2="155" y1="1259.3438" y2="1259.3438"/><text fill="#000000" font-family="sans-serif" font-size="13" lengthAdjust="spacingAndGlyphs" textLength="110" x="34" y="1254.2778">move focus away</text><polygon fill="#A80036" points="314,1284.4766,324,1288.4766,314,1292.4766,318,1288.4766" style="stroke: #A80036; stroke-width: 1.0;"/><line style="stroke: #A80036; stroke-width: 1.0;" x1="171" x2="320" y1="1288.4766" y2="1288.4766"/><text fill="#000000" font-family="sans-serif" font-size="13" lengthAdjust="spacingAndGlyphs" textLength="117" x="178" y="1283.4106">applyEditorValue()</text><line style="stroke: #A80036; stroke-width: 1.0;" x1="336" x2="383" y1="1312.6094" y2="1312.6094"/><line style="stroke: #A80036; stroke-width: 1.0;" x1="383" x2="383" y1="1312.6094" y2="1325.6094"/><line style="stroke: #A80036; stroke-width: 1.0;" x1="342" x2="383" y1="1325.6094" y2="1325.6094"/><polygon fill="#A80036" points="352,1321.6094,342,1325.6094,352,1329.6094,348,1325.6094" style="stroke: #A80036; stroke-width: 1.0;"/><text fill="#000000" font-family="sans-serif" font-size="13" lengthAdjust="spacingAndGlyphs" textLength="59" x="348" y="1307.5435">commit()</text><polygon fill="#A80036" points="933,1340.6094,943,1344.6094,933,1348.6094,937,1344.6094" style="stroke: #A80036; stroke-width: 1.0;"/><line style="stroke: #A80036; stroke-width: 1.0;" x1="341" x2="939" y1="1344.6094" y2="1344.6094"/><rect fill="#FEFECE" filter="url(#f1484dd7c78sxv)" height="30.2969" style="stroke: #A80036; stroke-width: 1.5;" width="141" x="945" y="1338.6094"/><text fill="#000000" font-family="sans-serif" font-size="14" lengthAdjust="spacingAndGlyphs" textLength="127" x="952" y="1358.6045">ReplaceValueTask</text><polygon fill="#A80036" points="1000.5,1401.0391,1010.5,1405.0391,1000.5,1409.0391,1004.5,1405.0391" style="stroke: #A80036; stroke-width: 1.0;"/><line style="stroke: #A80036; stroke-width: 1.0;" x1="341" x2="1006.5" y1="1405.0391" y2="1405.0391"/><text fill="#000000" font-family="sans-serif" font-size="13" lengthAdjust="spacingAndGlyphs" textLength="61" x="348" y="1399.9731">execute()</text><polygon fill="#A80036" points="617,1430.1719,607,1434.1719,617,1438.1719,613,1434.1719" style="stroke: #A80036; stroke-width: 1.0;"/><line style="stroke: #A80036; stroke-width: 1.0;" x1="611" x2="1011.5" y1="1434.1719" y2="1434.1719"/><text fill="#000000" font-family="sans-serif" font-size="13" lengthAdjust="spacingAndGlyphs" textLength="59" x="623" y="1429.106">commit()</text><polygon fill="#A80036" points="810.5,1459.3047,820.5,1463.3047,810.5,1467.3047,814.5,1463.3047" style="stroke: #A80036; stroke-width: 1.0;"/><line style="stroke: #A80036; stroke-width: 1.0;" x1="606" x2="816.5" y1="1463.3047" y2="1463.3047"/><text fill="#000000" font-family="sans-serif" font-size="13" lengthAdjust="spacingAndGlyphs" textLength="59" x="613" y="1458.2388">commit()</text><line style="stroke: #A80036; stroke-width: 1.0;" x1="832.5" x2="874.5" y1="1492.4375" y2="1492.4375"/><line style="stroke: #A80036; stroke-width: 1.0;" x1="874.5" x2="874.5" y1="1492.4375" y2="1505.4375"/><line style="stroke: #A80036; stroke-width: 1.0;" x1="833.5" x2="874.5" y1="1505.4375" y2="1505.4375"/><polygon fill="#A80036" points="843.5,1501.4375,833.5,1505.4375,843.5,1509.4375,839.5,1505.4375" style="stroke: #A80036; stroke-width: 1.0;"/><text fill="#000000" font-family="sans-serif" font-size="13" lengthAdjust="spacingAndGlyphs" textLength="90" x="839.5" y="1487.3716">adjustTarget()</text><line style="stroke: #A80036; stroke-width: 1.0;" x1="832.5" x2="879.5" y1="1529.5703" y2="1529.5703"/><line style="stroke: #A80036; stroke-width: 1.0;" x1="879.5" x2="879.5" y1="1529.5703" y2="1542.5703"/><line style="stroke: #A80036; stroke-width: 1.0;" x1="838.5" x2="879.5" y1="1542.5703" y2="1542.5703"/><polygon fill="#A80036" points="848.5,1538.5703,838.5,1542.5703,848.5,1546.5703,844.5,1542.5703" style="stroke: #A80036; stroke-width: 1.0;"/><text fill="#000000" font-family="sans-serif" font-size="13" lengthAdjust="spacingAndGlyphs" textLength="133" x="844.5" y="1524.5044">getValueToCommit()</text><polygon fill="#A80036" points="617,1572.7031,607,1576.7031,617,1580.7031,613,1576.7031" style="stroke: #A80036; stroke-width: 1.0;"/><line style="stroke: #A80036; stroke-width: 1.0;" x1="611" x2="826.5" y1="1576.7031" y2="1576.7031"/><text fill="#000000" font-family="sans-serif" font-size="13" lengthAdjust="spacingAndGlyphs" textLength="67" x="623" y="1571.6372">getValue()</text><line style="stroke: #A80036; stroke-width: 1.0; stroke-dasharray: 2.0,2.0;" x1="837.5" x2="879.5" y1="1595.7031" y2="1595.7031"/><line style="stroke: #A80036; stroke-width: 1.0; stroke-dasharray: 2.0,2.0;" x1="879.5" x2="879.5" y1="1595.7031" y2="1608.7031"/><line style="stroke: #A80036; stroke-width: 1.0; stroke-dasharray: 2.0,2.0;" x1="832.5" x2="879.5" y1="1608.7031" y2="1608.7031"/><polygon fill="#A80036" points="842.5,1604.7031,832.5,1608.7031,842.5,1612.7031,838.5,1608.7031" style="stroke: #A80036; stroke-width: 1.0;"/><polygon fill="#A80036" points="617,1628.8359,607,1632.8359,617,1636.8359,613,1632.8359" style="stroke: #A80036; stroke-width: 1.0;"/><line style="stroke: #A80036; stroke-width: 1.0; stroke-dasharray: 2.0,2.0;" x1="611" x2="826.5" y1="1632.8359" y2="1632.8359"/><text fill="#000000" font-family="sans-serif" font-size="13" lengthAdjust="spacingAndGlyphs" textLength="59" x="623" y="1627.77">commit()</text><polygon fill="#A80036" points="1000.5,1657.9688,1010.5,1661.9688,1000.5,1665.9688,1004.5,1661.9688" style="stroke: #A80036; stroke-width: 1.0;"/><line style="stroke: #A80036; stroke-width: 1.0; stroke-dasharray: 2.0,2.0;" x1="601" x2="1006.5" y1="1661.9688" y2="1661.9688"/><text fill="#000000" font-family="sans-serif" font-size="13" lengthAdjust="spacingAndGlyphs" textLength="59" x="608" y="1656.9028">commit()</text><polygon fill="#A80036" points="352,1687.1016,342,1691.1016,352,1695.1016,348,1691.1016" style="stroke: #A80036; stroke-width: 1.0;"/><line style="stroke: #A80036; stroke-width: 1.0; stroke-dasharray: 2.0,2.0;" x1="346" x2="1016.5" y1="1691.1016" y2="1691.1016"/><text fill="#000000" font-family="sans-serif" font-size="13" lengthAdjust="spacingAndGlyphs" textLength="61" x="358" y="1686.0356">execute()</text><polygon fill="#A80036" points="1005.5,1701.1016,1015.5,1705.1016,1005.5,1709.1016,1009.5,1705.1016" style="stroke: #A80036; stroke-width: 1.0;"/><line style="stroke: #A80036; stroke-width: 1.0;" x1="341" x2="1011.5" y1="1705.1016" y2="1705.1016"/><line style="stroke: #A80036; stroke-width: 2.0;" x1="1008.5" x2="1026.5" y1="1696.1016" y2="1714.1016"/><line style="stroke: #A80036; stroke-width: 2.0;" x1="1008.5" x2="1026.5" y1="1714.1016" y2="1696.1016"/><line style="stroke: #A80036; stroke-width: 1.0; stroke-dasharray: 2.0,2.0;" x1="341" x2="383" y1="1739.2344" y2="1739.2344"/><line style="stroke: #A80036; stroke-width: 1.0; stroke-dasharray: 2.0,2.0;" x1="383" x2="383" y1="1739.2344" y2="1752.2344"/><line style="stroke: #A80036; stroke-width: 1.0; stroke-dasharray: 2.0,2.0;" x1="336" x2="383" y1="1752.2344" y2="1752.2344"/><polygon fill="#A80036" points="346,1748.2344,336,1752.2344,346,1756.2344,342,1752.2344" style="stroke: #A80036; stroke-width: 1.0;"/><text fill="#000000" font-family="sans-serif" font-size="13" lengthAdjust="spacingAndGlyphs" textLength="59" x="348" y="1734.1685">commit()</text><polygon fill="#A80036" points="182,1772.3672,172,1776.3672,182,1780.3672,178,1776.3672" style="stroke: #A80036; stroke-width: 1.0;"/><line style="stroke: #A80036; stroke-width: 1.0; stroke-dasharray: 2.0,2.0;" x1="176" x2="330" y1="1776.3672" y2="1776.3672"/><text fill="#000000" font-family="sans-serif" font-size="13" lengthAdjust="spacingAndGlyphs" textLength="117" x="188" y="1771.3013">applyEditorValue()</text><polygon fill="#A80036" points="589,1786.3672,599,1790.3672,589,1794.3672,593,1790.3672" style="stroke: #A80036; stroke-width: 1.0;"/><line style="stroke: #A80036; stroke-width: 1.0;" x1="171" x2="595" y1="1790.3672" y2="1790.3672"/><line style="stroke: #A80036; stroke-width: 2.0;" x1="592" x2="610" y1="1781.3672" y2="1799.3672"/><line style="stroke: #A80036; stroke-width: 2.0;" x1="592" x2="610" y1="1799.3672" y2="1781.3672"/><polygon fill="#A80036" points="815.5,1800.3672,825.5,1804.3672,815.5,1808.3672,819.5,1804.3672" style="stroke: #A80036; stroke-width: 1.0;"/><line style="stroke: #A80036; stroke-width: 1.0;" x1="601" x2="821.5" y1="1804.3672" y2="1804.3672"/><line style="stroke: #A80036; stroke-width: 2.0;" x1="818.5" x2="836.5" y1="1795.3672" y2="1813.3672"/><line style="stroke: #A80036; stroke-width: 2.0;" x1="818.5" x2="836.5" y1="1813.3672" y2="1795.3672"/><polygon fill="#A80036" points="38,1829.5,28,1833.5,38,1837.5,34,1833.5" style="stroke: #A80036; stroke-width: 1.0;"/><line style="stroke: #A80036; stroke-width: 1.0; stroke-dasharray: 2.0,2.0;" x1="32" x2="165" y1="1833.5" y2="1833.5"/><text fill="#000000" font-family="sans-serif" font-size="13" lengthAdjust="spacingAndGlyphs" textLength="110" x="44" y="1828.4341">move focus away</text><!--
@startuml
hide footbox

actor User as user

control Eclipse as eclipse

participant "XtextSiriusDirectEditManagerValue" as editMgr
participant "XtextSiriusStyledTextCellEditorValue" as cellEditor
participant "XtextSiriusValueEditor" as valueEditor

participant ReplaceValueTask as replaceValueTask

== Open Direct Edit ==

user -> eclipse ++: double click

eclipse -> editMgr ++: show()

editMgr -> editMgr ++: createCellEditor()

editMgr -> cellEditor **
activate cellEditor

cellEditor -> valueEditor **
cellEditor -> valueEditor: setCallback(this)

return

return

editMgr -> editMgr ++: initCellEditor()

editMgr -> editMgr ++: setSemanticElement()

editMgr -> cellEditor ++: setSemanticElement()
cellEditor -> valueEditor: setSemanticElement()
return

editMgr -> cellEditor ++: setFallbackContainer()
cellEditor -> valueEditor: setFallbackContainer()
return

return

editMgr -> editMgr ++: setEditText()

editMgr -> cellEditor ++: doSetValue()

cellEditor -> valueEditor ++: doSetValue()
valueEditor -> valueEditor ++: updateCallbackSetValue()

valueEditor -> cellEditor ++: callbackSetValue()
cellEditor -> cellEditor: super.doSetValue()
cellEditor -> cellEditor: setVisibleRegion()
cellEditor -> cellEditor: updateFakeResourceUri()

return

return


return doSetValue()

return doSetValue()

return

return

return show()

return double click

user -> eclipse: change text

== Close Direct Edit ==

user -> eclipse ++: move focus away

eclipse -> editMgr ++: applyEditorValue()
editMgr -> editMgr ++: commit()

editMgr -> replaceValueTask **

editMgr -> replaceValueTask ++: execute()

replaceValueTask -> cellEditor ++: commit()

cellEditor -> valueEditor ++: commit()

valueEditor -> valueEditor: adjustTarget()

valueEditor -> valueEditor ++: getValueToCommit()
valueEditor -> cellEditor: getValue()
return

return commit()

return commit()

return execute()

editMgr -> replaceValueTask !!

return commit()

return applyEditorValue()

eclipse -> cellEditor !!
cellEditor -> valueEditor !!

return move focus away
@enduml

PlantUML version 1.2018.13(Mon Nov 26 17:11:51 GMT 2018)
(APACHE source distribution)
Java Runtime: OpenJDK Runtime Environment
JVM: OpenJDK 64-Bit Server VM
Java Version: 1.8.0_191-8u191-b12-2ubuntu0.16.04.1-b12
Operating System: Linux
OS Version: 4.4.0-43-Microsoft
Default Encoding: UTF-8
Language: en
Country: US
--></g></svg>