<?xml version="1.0" encoding="UTF-8" standalone="no"?><svg xmlns="http://www.w3.org/2000/svg" xmlns:xlink="http://www.w3.org/1999/xlink" contentScriptType="application/ecmascript" contentStyleType="text/css" height="1924px" preserveAspectRatio="none" style="width:1107px;height:1924px;" version="1.1" viewBox="0 0 1107 1924" width="1107px" zoomAndPan="magnify"><defs><filter height="300%" id="ff0mth2jn1b6c" width="300%" x="-1" y="-1"><feGaussianBlur result="blurOut" stdDeviation="2.0"/><feColorMatrix in="blurOut" result="blurOut2" type="matrix" values="0 0 0 0 0 0 0 0 0 0 0 0 0 0 0 0 0 0 .4 0"/><feOffset dx="4.0" dy="4.0" in="blurOut2" result="blurOut3"/><feBlend in="SourceGraphic" in2="blurOut3" mode="normal"/></filter></defs><g><text fill="#000000" font-family="sans-serif" font-size="14" font-weight="bold" lengthAdjust="spacingAndGlyphs" textLength="130" x="484" y="22.9951">Direct Edit Value</text><rect fill="#FFFFFF" filter="url(#ff0mth2jn1b6c)" height="1027.6484" style="stroke: #A80036; stroke-width: 1.0;" width="10" x="161" y="190.8594"/><rect fill="#FFFFFF" filter="url(#ff0mth2jn1b6c)" height="574.1563" style="stroke: #A80036; stroke-width: 1.0;" width="10" x="161" y="1319.9063"/><rect fill="#FFFFFF" filter="url(#ff0mth2jn1b6c)" height="969.3828" style="stroke: #A80036; stroke-width: 1.0;" width="10" x="326" y="219.9922"/><rect fill="#FFFFFF" filter="url(#ff0mth2jn1b6c)" height="158.8594" style="stroke: #A80036; stroke-width: 1.0;" width="10" x="331" y="256.9922"/><rect fill="#FFFFFF" filter="url(#ff0mth2jn1b6c)" height="693.2578" style="stroke: #A80036; stroke-width: 1.0;" width="10" x="331" y="459.8516"/><rect fill="#FFFFFF" filter="url(#ff0mth2jn1b6c)" height="169.6641" style="stroke: #A80036; stroke-width: 1.0;" width="10" x="336" y="501.9844"/><rect fill="#FFFFFF" filter="url(#ff0mth2jn1b6c)" height="395.3281" style="stroke: #A80036; stroke-width: 1.0;" width="10" x="336" y="715.6484"/><rect fill="#FFFFFF" filter="url(#ff0mth2jn1b6c)" height="487.8906" style="stroke: #A80036; stroke-width: 1.0;" width="10" x="326" y="1349.0391"/><rect fill="#FFFFFF" filter="url(#ff0mth2jn1b6c)" height="414.625" style="stroke: #A80036; stroke-width: 1.0;" width="10" x="331" y="1386.0391"/><rect fill="#FFFFFF" filter="url(#ff0mth2jn1b6c)" height="109.7266" style="stroke: #A80036; stroke-width: 1.0;" width="10" x="596" y="286.125"/><rect fill="#FFFFFF" filter="url(#ff0mth2jn1b6c)" height="43.1328" style="stroke: #A80036; stroke-width: 1.0;" width="10" x="596" y="536.25"/><rect fill="#FFFFFF" filter="url(#ff0mth2jn1b6c)" height="43.1328" style="stroke: #A80036; stroke-width: 1.0;" width="10" x="596" y="608.5156"/><rect fill="#FFFFFF" filter="url(#ff0mth2jn1b6c)" height="326.0625" style="stroke: #A80036; stroke-width: 1.0;" width="10" x="596" y="749.9141"/><rect fill="#FFFFFF" filter="url(#ff0mth2jn1b6c)" height="140.3984" style="stroke: #A80036; stroke-width: 1.0;" width="10" x="601" y="850.3125"/><rect fill="#FFFFFF" filter="url(#ff0mth2jn1b6c)" height="227.7969" style="stroke: #A80036; stroke-width: 1.0;" width="10" x="596" y="1494.7344"/><rect fill="#FFFFFF" filter="url(#ff0mth2jn1b6c)" height="267.7969" style="stroke: #A80036; stroke-width: 1.0;" width="10" x="822.5" y="779.0469"/><rect fill="#FFFFFF" filter="url(#ff0mth2jn1b6c)" height="194.6641" style="stroke: #A80036; stroke-width: 1.0;" width="10" x="827.5" y="816.0469"/><rect fill="#FFFFFF" filter="url(#ff0mth2jn1b6c)" height="169.5313" style="stroke: #A80036; stroke-width: 1.0;" width="10" x="822.5" y="1523.8672"/><rect fill="#FFFFFF" filter="url(#ff0mth2jn1b6c)" height="54.2656" style="stroke: #A80036; stroke-width: 1.0;" width="10" x="827.5" y="1603"/><rect fill="#FFFFFF" filter="url(#ff0mth2jn1b6c)" height="286.0625" style="stroke: #A80036; stroke-width: 1.0;" width="10" x="1012.5" y="1465.6016"/><rect fill="#FEFECE" filter="url(#ff0mth2jn1b6c)" height="30.2969" style="stroke: #A80036; stroke-width: 1.5;" width="261" x="468.5" y="270.125"/><text fill="#000000" font-family="sans-serif" font-size="14" lengthAdjust="spacingAndGlyphs" textLength="247" x="475.5" y="290.1201">XtextSiriusStyledTextCellEditorValue</text><rect fill="#FEFECE" filter="url(#ff0mth2jn1b6c)" height="30.2969" style="stroke: #A80036; stroke-width: 1.5;" width="164" x="743.5" y="315.4219"/><text fill="#000000" font-family="sans-serif" font-size="14" lengthAdjust="spacingAndGlyphs" textLength="150" x="750.5" y="335.417">XtextSiriusValueEditor</text><rect fill="#FEFECE" filter="url(#ff0mth2jn1b6c)" height="30.2969" style="stroke: #A80036; stroke-width: 1.5;" width="141" x="945" y="1399.1719"/><text fill="#000000" font-family="sans-serif" font-size="14" lengthAdjust="spacingAndGlyphs" textLength="127" x="952" y="1419.167">ReplaceValueTask</text><line style="stroke: #A80036; stroke-width: 1.0; stroke-dasharray: 5.0,5.0;" x1="27" x2="27" y1="116.5938" y2="1912.0625"/><line style="stroke: #A80036; stroke-width: 1.0; stroke-dasharray: 5.0,5.0;" x1="165.5" x2="165.5" y1="116.5938" y2="1912.0625"/><line style="stroke: #A80036; stroke-width: 1.0; stroke-dasharray: 5.0,5.0;" x1="330.5" x2="330.5" y1="116.5938" y2="1912.0625"/><line style="stroke: #A80036; stroke-width: 1.0; stroke-dasharray: 5.0,5.0;" x1="600.5" x2="600.5" y1="302.7734" y2="1912.0625"/><line style="stroke: #A80036; stroke-width: 1.0; stroke-dasharray: 5.0,5.0;" x1="827.5" x2="827.5" y1="348.0703" y2="1912.0625"/><line style="stroke: #A80036; stroke-width: 1.0; stroke-dasharray: 5.0,5.0;" x1="1017" x2="1017" y1="1431.8203" y2="1912.0625"/><text fill="#000000" font-family="sans-serif" font-size="14" lengthAdjust="spacingAndGlyphs" textLength="32" x="8" y="113.292">User</text><ellipse cx="27" cy="43.2969" fill="#FEFECE" filter="url(#ff0mth2jn1b6c)" rx="8" ry="8" style="stroke: #A80036; stroke-width: 2.0;"/><path d="M27,51.2969 L27,78.2969 M14,59.2969 L40,59.2969 M27,78.2969 L14,93.2969 M27,78.2969 L40,93.2969 " fill="none" filter="url(#ff0mth2jn1b6c)" style="stroke: #A80036; stroke-width: 2.0;"/><text fill="#000000" font-family="sans-serif" font-size="14" lengthAdjust="spacingAndGlyphs" textLength="49" x="138.5" y="113.292">Eclipse</text><ellipse cx="166" cy="84.2969" fill="#FEFECE" filter="url(#ff0mth2jn1b6c)" rx="12" ry="12" style="stroke: #A80036; stroke-width: 2.0;"/><polygon fill="#A80036" points="162,72.2969,168,67.2969,166,72.2969,168,77.2969,162,72.2969" style="stroke: #A80036; stroke-width: 1.0;"/><rect fill="#FEFECE" filter="url(#ff0mth2jn1b6c)" height="30.2969" style="stroke: #A80036; stroke-width: 1.5;" width="251" x="203.5" y="81.2969"/><text fill="#000000" font-family="sans-serif" font-size="14" lengthAdjust="spacingAndGlyphs" textLength="237" x="210.5" y="101.292">XtextSiriusDirectEditManagerValue</text><rect fill="#FFFFFF" filter="url(#ff0mth2jn1b6c)" height="1027.6484" style="stroke: #A80036; stroke-width: 1.0;" width="10" x="161" y="190.8594"/><rect fill="#FFFFFF" filter="url(#ff0mth2jn1b6c)" height="574.1563" style="stroke: #A80036; stroke-width: 1.0;" width="10" x="161" y="1319.9063"/><rect fill="#FFFFFF" filter="url(#ff0mth2jn1b6c)" height="969.3828" style="stroke: #A80036; stroke-width: 1.0;" width="10" x="326" y="219.9922"/><rect fill="#FFFFFF" filter="url(#ff0mth2jn1b6c)" height="158.8594" style="stroke: #A80036; stroke-width: 1.0;" width="10" x="331" y="256.9922"/><rect fill="#FFFFFF" filter="url(#ff0mth2jn1b6c)" height="693.2578" style="stroke: #A80036; stroke-width: 1.0;" width="10" x="331" y="459.8516"/><rect fill="#FFFFFF" filter="url(#ff0mth2jn1b6c)" height="169.6641" style="stroke: #A80036; stroke-width: 1.0;" width="10" x="336" y="501.9844"/><rect fill="#FFFFFF" filter="url(#ff0mth2jn1b6c)" height="395.3281" style="stroke: #A80036; stroke-width: 1.0;" width="10" x="336" y="715.6484"/><rect fill="#FFFFFF" filter="url(#ff0mth2jn1b6c)" height="487.8906" style="stroke: #A80036; stroke-width: 1.0;" width="10" x="326" y="1349.0391"/><rect fill="#FFFFFF" filter="url(#ff0mth2jn1b6c)" height="414.625" style="stroke: #A80036; stroke-width: 1.0;" width="10" x="331" y="1386.0391"/><rect fill="#FFFFFF" filter="url(#ff0mth2jn1b6c)" height="109.7266" style="stroke: #A80036; stroke-width: 1.0;" width="10" x="596" y="286.125"/><rect fill="#FFFFFF" filter="url(#ff0mth2jn1b6c)" height="43.1328" style="stroke: #A80036; stroke-width: 1.0;" width="10" x="596" y="536.25"/><rect fill="#FFFFFF" filter="url(#ff0mth2jn1b6c)" height="43.1328" style="stroke: #A80036; stroke-width: 1.0;" width="10" x="596" y="608.5156"/><rect fill="#FFFFFF" filter="url(#ff0mth2jn1b6c)" height="326.0625" style="stroke: #A80036; stroke-width: 1.0;" width="10" x="596" y="749.9141"/><rect fill="#FFFFFF" filter="url(#ff0mth2jn1b6c)" height="140.3984" style="stroke: #A80036; stroke-width: 1.0;" width="10" x="601" y="850.3125"/><rect fill="#FFFFFF" filter="url(#ff0mth2jn1b6c)" height="227.7969" style="stroke: #A80036; stroke-width: 1.0;" width="10" x="596" y="1494.7344"/><rect fill="#FFFFFF" filter="url(#ff0mth2jn1b6c)" height="267.7969" style="stroke: #A80036; stroke-width: 1.0;" width="10" x="822.5" y="779.0469"/><rect fill="#FFFFFF" filter="url(#ff0mth2jn1b6c)" height="194.6641" style="stroke: #A80036; stroke-width: 1.0;" width="10" x="827.5" y="816.0469"/><rect fill="#FFFFFF" filter="url(#ff0mth2jn1b6c)" height="169.5313" style="stroke: #A80036; stroke-width: 1.0;" width="10" x="822.5" y="1523.8672"/><rect fill="#FFFFFF" filter="url(#ff0mth2jn1b6c)" height="54.2656" style="stroke: #A80036; stroke-width: 1.0;" width="10" x="827.5" y="1603"/><rect fill="#FFFFFF" filter="url(#ff0mth2jn1b6c)" height="286.0625" style="stroke: #A80036; stroke-width: 1.0;" width="10" x="1012.5" y="1465.6016"/><rect fill="#EEEEEE" filter="url(#ff0mth2jn1b6c)" height="3" style="stroke: #EEEEEE; stroke-width: 1.0;" width="1092" x="3" y="147.1602"/><line style="stroke: #000000; stroke-width: 1.0;" x1="3" x2="1095" y1="147.1602" y2="147.1602"/><line style="stroke: #000000; stroke-width: 1.0;" x1="3" x2="1095" y1="150.1602" y2="150.1602"/><rect fill="#EEEEEE" filter="url(#ff0mth2jn1b6c)" height="23.1328" style="stroke: #000000; stroke-width: 2.0;" width="141" x="478.5" y="136.5938"/><text fill="#000000" font-family="sans-serif" font-size="13" font-weight="bold" lengthAdjust="spacingAndGlyphs" textLength="122" x="484.5" y="152.6606">Open Direct Edit</text><polygon fill="#A80036" points="149,186.8594,159,190.8594,149,194.8594,153,190.8594" style="stroke: #A80036; stroke-width: 1.0;"/><line style="stroke: #A80036; stroke-width: 1.0;" x1="27" x2="155" y1="190.8594" y2="190.8594"/><text fill="#000000" font-family="sans-serif" font-size="13" lengthAdjust="spacingAndGlyphs" textLength="74" x="34" y="185.7935">double click</text><polygon fill="#A80036" points="314,215.9922,324,219.9922,314,223.9922,318,219.9922" style="stroke: #A80036; stroke-width: 1.0;"/><line style="stroke: #A80036; stroke-width: 1.0;" x1="171" x2="320" y1="219.9922" y2="219.9922"/><text fill="#000000" font-family="sans-serif" font-size="13" lengthAdjust="spacingAndGlyphs" textLength="42" x="178" y="214.9263">show()</text><line style="stroke: #A80036; stroke-width: 1.0;" x1="336" x2="383" y1="244.125" y2="244.125"/><line style="stroke: #A80036; stroke-width: 1.0;" x1="383" x2="383" y1="244.125" y2="257.125"/><line style="stroke: #A80036; stroke-width: 1.0;" x1="342" x2="383" y1="257.125" y2="257.125"/><polygon fill="#A80036" points="352,253.125,342,257.125,352,261.125,348,257.125" style="stroke: #A80036; stroke-width: 1.0;"/><text fill="#000000" font-family="sans-serif" font-size="13" lengthAdjust="spacingAndGlyphs" textLength="111" x="348" y="239.0591">createCellEditor()</text><polygon fill="#A80036" points="456.5,272.125,466.5,276.125,456.5,280.125,460.5,276.125" style="stroke: #A80036; stroke-width: 1.0;"/><line style="stroke: #A80036; stroke-width: 1.0;" x1="341" x2="462.5" y1="276.125" y2="276.125"/><rect fill="#FEFECE" filter="url(#ff0mth2jn1b6c)" height="30.2969" style="stroke: #A80036; stroke-width: 1.5;" width="261" x="468.5" y="270.125"/><text fill="#000000" font-family="sans-serif" font-size="14" lengthAdjust="spacingAndGlyphs" textLength="247" x="475.5" y="290.1201">XtextSiriusStyledTextCellEditorValue</text><polygon fill="#A80036" points="731.5,317.4219,741.5,321.4219,731.5,325.4219,735.5,321.4219" style="stroke: #A80036; stroke-width: 1.0;"/><line style="stroke: #A80036; stroke-width: 1.0;" x1="606" x2="737.5" y1="321.4219" y2="321.4219"/><rect fill="#FEFECE" filter="url(#ff0mth2jn1b6c)" height="30.2969" style="stroke: #A80036; stroke-width: 1.5;" width="164" x="743.5" y="315.4219"/><text fill="#000000" font-family="sans-serif" font-size="14" lengthAdjust="spacingAndGlyphs" textLength="150" x="750.5" y="335.417">XtextSiriusValueEditor</text><polygon fill="#A80036" points="815.5,377.8516,825.5,381.8516,815.5,385.8516,819.5,381.8516" style="stroke: #A80036; stroke-width: 1.0;"/><line style="stroke: #A80036; stroke-width: 1.0;" x1="606" x2="821.5" y1="381.8516" y2="381.8516"/><text fill="#000000" font-family="sans-serif" font-size="13" lengthAdjust="spacingAndGlyphs" textLength="106" x="613" y="376.7856">setCallback(this)</text><polygon fill="#A80036" points="352,391.8516,342,395.8516,352,399.8516,348,395.8516" style="stroke: #A80036; stroke-width: 1.0;"/><line style="stroke: #A80036; stroke-width: 1.0; stroke-dasharray: 2.0,2.0;" x1="346" x2="600" y1="395.8516" y2="395.8516"/><line style="stroke: #A80036; stroke-width: 1.0; stroke-dasharray: 2.0,2.0;" x1="341" x2="383" y1="414.8516" y2="414.8516"/><line style="stroke: #A80036; stroke-width: 1.0; stroke-dasharray: 2.0,2.0;" x1="383" x2="383" y1="414.8516" y2="427.8516"/><line style="stroke: #A80036; stroke-width: 1.0; stroke-dasharray: 2.0,2.0;" x1="336" x2="383" y1="427.8516" y2="427.8516"/><polygon fill="#A80036" points="346,423.8516,336,427.8516,346,431.8516,342,427.8516" style="stroke: #A80036; stroke-width: 1.0;"/><line style="stroke: #A80036; stroke-width: 1.0;" x1="336" x2="383" y1="446.9844" y2="446.9844"/><line style="stroke: #A80036; stroke-width: 1.0;" x1="383" x2="383" y1="446.9844" y2="459.9844"/><line style="stroke: #A80036; stroke-width: 1.0;" x1="342" x2="383" y1="459.9844" y2="459.9844"/><polygon fill="#A80036" points="352,455.9844,342,459.9844,352,463.9844,348,459.9844" style="stroke: #A80036; stroke-width: 1.0;"/><text fill="#000000" font-family="sans-serif" font-size="13" lengthAdjust="spacingAndGlyphs" textLength="89" x="348" y="441.9185">initCellEditor()</text><line style="stroke: #A80036; stroke-width: 1.0;" x1="341" x2="388" y1="489.1172" y2="489.1172"/><line style="stroke: #A80036; stroke-width: 1.0;" x1="388" x2="388" y1="489.1172" y2="502.1172"/><line style="stroke: #A80036; stroke-width: 1.0;" x1="347" x2="388" y1="502.1172" y2="502.1172"/><polygon fill="#A80036" points="357,498.1172,347,502.1172,357,506.1172,353,502.1172" style="stroke: #A80036; stroke-width: 1.0;"/><text fill="#000000" font-family="sans-serif" font-size="13" lengthAdjust="spacingAndGlyphs" textLength="144" x="353" y="484.0513">setSemanticElement()</text><polygon fill="#A80036" points="584,532.25,594,536.25,584,540.25,588,536.25" style="stroke: #A80036; stroke-width: 1.0;"/><line style="stroke: #A80036; stroke-width: 1.0;" x1="346" x2="590" y1="536.25" y2="536.25"/><text fill="#000000" font-family="sans-serif" font-size="13" lengthAdjust="spacingAndGlyphs" textLength="144" x="353" y="531.1841">setSemanticElement()</text><polygon fill="#A80036" points="815.5,561.3828,825.5,565.3828,815.5,569.3828,819.5,565.3828" style="stroke: #A80036; stroke-width: 1.0;"/><line style="stroke: #A80036; stroke-width: 1.0;" x1="606" x2="821.5" y1="565.3828" y2="565.3828"/><text fill="#000000" font-family="sans-serif" font-size="13" lengthAdjust="spacingAndGlyphs" textLength="144" x="613" y="560.3169">setSemanticElement()</text><polygon fill="#A80036" points="357,575.3828,347,579.3828,357,583.3828,353,579.3828" style="stroke: #A80036; stroke-width: 1.0;"/><line style="stroke: #A80036; stroke-width: 1.0; stroke-dasharray: 2.0,2.0;" x1="351" x2="600" y1="579.3828" y2="579.3828"/><polygon fill="#A80036" points="584,604.5156,594,608.5156,584,612.5156,588,608.5156" style="stroke: #A80036; stroke-width: 1.0;"/><line style="stroke: #A80036; stroke-width: 1.0;" x1="346" x2="590" y1="608.5156" y2="608.5156"/><text fill="#000000" font-family="sans-serif" font-size="13" lengthAdjust="spacingAndGlyphs" textLength="143" x="353" y="603.4497">setFallbackContainer()</text><polygon fill="#A80036" points="815.5,633.6484,825.5,637.6484,815.5,641.6484,819.5,637.6484" style="stroke: #A80036; stroke-width: 1.0;"/><line style="stroke: #A80036; stroke-width: 1.0;" x1="606" x2="821.5" y1="637.6484" y2="637.6484"/><text fill="#000000" font-family="sans-serif" font-size="13" lengthAdjust="spacingAndGlyphs" textLength="143" x="613" y="632.5825">setFallbackContainer()</text><polygon fill="#A80036" points="357,647.6484,347,651.6484,357,655.6484,353,651.6484" style="stroke: #A80036; stroke-width: 1.0;"/><line style="stroke: #A80036; stroke-width: 1.0; stroke-dasharray: 2.0,2.0;" x1="351" x2="600" y1="651.6484" y2="651.6484"/><line style="stroke: #A80036; stroke-width: 1.0; stroke-dasharray: 2.0,2.0;" x1="346" x2="388" y1="670.6484" y2="670.6484"/><line style="stroke: #A80036; stroke-width: 1.0; stroke-dasharray: 2.0,2.0;" x1="388" x2="388" y1="670.6484" y2="683.6484"/><line style="stroke: #A80036; stroke-width: 1.0; stroke-dasharray: 2.0,2.0;" x1="341" x2="388" y1="683.6484" y2="683.6484"/><polygon fill="#A80036" points="351,679.6484,341,683.6484,351,687.6484,347,683.6484" style="stroke: #A80036; stroke-width: 1.0;"/><line style="stroke: #A80036; stroke-width: 1.0;" x1="341" x2="388" y1="702.7813" y2="702.7813"/><line style="stroke: #A80036; stroke-width: 1.0;" x1="388" x2="388" y1="702.7813" y2="715.7813"/><line style="stroke: #A80036; stroke-width: 1.0;" x1="347" x2="388" y1="715.7813" y2="715.7813"/><polygon fill="#A80036" points="357,711.7813,347,715.7813,357,719.7813,353,715.7813" style="stroke: #A80036; stroke-width: 1.0;"/><text fill="#000000" font-family="sans-serif" font-size="13" lengthAdjust="spacingAndGlyphs" textLength="81" x="353" y="697.7153">setEditText()</text><polygon fill="#A80036" points="584,745.9141,594,749.9141,584,753.9141,588,749.9141" style="stroke: #A80036; stroke-width: 1.0;"/><line style="stroke: #A80036; stroke-width: 1.0;" x1="346" x2="590" y1="749.9141" y2="749.9141"/><text fill="#000000" font-family="sans-serif" font-size="13" lengthAdjust="spacingAndGlyphs" textLength="84" x="353" y="744.8481">doSetValue()</text><polygon fill="#A80036" points="810.5,775.0469,820.5,779.0469,810.5,783.0469,814.5,779.0469" style="stroke: #A80036; stroke-width: 1.0;"/><line style="stroke: #A80036; stroke-width: 1.0;" x1="606" x2="816.5" y1="779.0469" y2="779.0469"/><text fill="#000000" font-family="sans-serif" font-size="13" lengthAdjust="spacingAndGlyphs" textLength="84" x="613" y="773.981">doSetValue()</text><line style="stroke: #A80036; stroke-width: 1.0;" x1="832.5" x2="879.5" y1="803.1797" y2="803.1797"/><line style="stroke: #A80036; stroke-width: 1.0;" x1="879.5" x2="879.5" y1="803.1797" y2="816.1797"/><line style="stroke: #A80036; stroke-width: 1.0;" x1="838.5" x2="879.5" y1="816.1797" y2="816.1797"/><polygon fill="#A80036" points="848.5,812.1797,838.5,816.1797,848.5,820.1797,844.5,816.1797" style="stroke: #A80036; stroke-width: 1.0;"/><text fill="#000000" font-family="sans-serif" font-size="13" lengthAdjust="spacingAndGlyphs" textLength="166" x="844.5" y="798.1138">updateCallbackSetValue()</text><polygon fill="#A80036" points="622,846.3125,612,850.3125,622,854.3125,618,850.3125" style="stroke: #A80036; stroke-width: 1.0;"/><line style="stroke: #A80036; stroke-width: 1.0;" x1="616" x2="826.5" y1="850.3125" y2="850.3125"/><text fill="#000000" font-family="sans-serif" font-size="13" lengthAdjust="spacingAndGlyphs" textLength="119" x="628" y="845.2466">callbackSetValue()</text><line style="stroke: #A80036; stroke-width: 1.0;" x1="611" x2="653" y1="879.4453" y2="879.4453"/><line style="stroke: #A80036; stroke-width: 1.0;" x1="653" x2="653" y1="879.4453" y2="892.4453"/><line style="stroke: #A80036; stroke-width: 1.0;" x1="612" x2="653" y1="892.4453" y2="892.4453"/><polygon fill="#A80036" points="622,888.4453,612,892.4453,622,896.4453,618,892.4453" style="stroke: #A80036; stroke-width: 1.0;"/><text fill="#000000" font-family="sans-serif" font-size="13" lengthAdjust="spacingAndGlyphs" textLength="124" x="618" y="874.3794">super.doSetValue()</text><line style="stroke: #A80036; stroke-width: 1.0;" x1="611" x2="653" y1="921.5781" y2="921.5781"/><line style="stroke: #A80036; stroke-width: 1.0;" x1="653" x2="653" y1="921.5781" y2="934.5781"/><line style="stroke: #A80036; stroke-width: 1.0;" x1="612" x2="653" y1="934.5781" y2="934.5781"/><polygon fill="#A80036" points="622,930.5781,612,934.5781,622,938.5781,618,934.5781" style="stroke: #A80036; stroke-width: 1.0;"/><text fill="#000000" font-family="sans-serif" font-size="13" lengthAdjust="spacingAndGlyphs" textLength="114" x="618" y="916.5122">setVisibleRegion()</text><line style="stroke: #A80036; stroke-width: 1.0;" x1="611" x2="653" y1="963.7109" y2="963.7109"/><line style="stroke: #A80036; stroke-width: 1.0;" x1="653" x2="653" y1="963.7109" y2="976.7109"/><line style="stroke: #A80036; stroke-width: 1.0;" x1="612" x2="653" y1="976.7109" y2="976.7109"/><polygon fill="#A80036" points="622,972.7109,612,976.7109,622,980.7109,618,976.7109" style="stroke: #A80036; stroke-width: 1.0;"/><text fill="#000000" font-family="sans-serif" font-size="13" lengthAdjust="spacingAndGlyphs" textLength="162" x="618" y="958.645">updateFakeResourceUri()</text><polygon fill="#A80036" points="815.5,986.7109,825.5,990.7109,815.5,994.7109,819.5,990.7109" style="stroke: #A80036; stroke-width: 1.0;"/><line style="stroke: #A80036; stroke-width: 1.0; stroke-dasharray: 2.0,2.0;" x1="606" x2="821.5" y1="990.7109" y2="990.7109"/><line style="stroke: #A80036; stroke-width: 1.0; stroke-dasharray: 2.0,2.0;" x1="837.5" x2="879.5" y1="1009.7109" y2="1009.7109"/><line style="stroke: #A80036; stroke-width: 1.0; stroke-dasharray: 2.0,2.0;" x1="879.5" x2="879.5" y1="1009.7109" y2="1022.7109"/><line style="stroke: #A80036; stroke-width: 1.0; stroke-dasharray: 2.0,2.0;" x1="832.5" x2="879.5" y1="1022.7109" y2="1022.7109"/><polygon fill="#A80036" points="842.5,1018.7109,832.5,1022.7109,842.5,1026.7109,838.5,1022.7109" style="stroke: #A80036; stroke-width: 1.0;"/><polygon fill="#A80036" points="617,1042.8438,607,1046.8438,617,1050.8438,613,1046.8438" style="stroke: #A80036; stroke-width: 1.0;"/><line style="stroke: #A80036; stroke-width: 1.0; stroke-dasharray: 2.0,2.0;" x1="611" x2="826.5" y1="1046.8438" y2="1046.8438"/><text fill="#000000" font-family="sans-serif" font-size="13" lengthAdjust="spacingAndGlyphs" textLength="84" x="623" y="1041.7778">doSetValue()</text><polygon fill="#A80036" points="357,1071.9766,347,1075.9766,357,1079.9766,353,1075.9766" style="stroke: #A80036; stroke-width: 1.0;"/><line style="stroke: #A80036; stroke-width: 1.0; stroke-dasharray: 2.0,2.0;" x1="351" x2="600" y1="1075.9766" y2="1075.9766"/><text fill="#000000" font-family="sans-serif" font-size="13" lengthAdjust="spacingAndGlyphs" textLength="84" x="363" y="1070.9106">doSetValue()</text><line style="stroke: #A80036; stroke-width: 1.0; stroke-dasharray: 2.0,2.0;" x1="346" x2="388" y1="1110.1094" y2="1110.1094"/><line style="stroke: #A80036; stroke-width: 1.0; stroke-dasharray: 2.0,2.0;" x1="388" x2="388" y1="1110.1094" y2="1123.1094"/><line style="stroke: #A80036; stroke-width: 1.0; stroke-dasharray: 2.0,2.0;" x1="341" x2="388" y1="1123.1094" y2="1123.1094"/><polygon fill="#A80036" points="351,1119.1094,341,1123.1094,351,1127.1094,347,1123.1094" style="stroke: #A80036; stroke-width: 1.0;"/><text fill="#000000" font-family="sans-serif" font-size="13" lengthAdjust="spacingAndGlyphs" textLength="81" x="353" y="1105.0435">setEditText()</text><line style="stroke: #A80036; stroke-width: 1.0; stroke-dasharray: 2.0,2.0;" x1="341" x2="383" y1="1152.2422" y2="1152.2422"/><line style="stroke: #A80036; stroke-width: 1.0; stroke-dasharray: 2.0,2.0;" x1="383" x2="383" y1="1152.2422" y2="1165.2422"/><line style="stroke: #A80036; stroke-width: 1.0; stroke-dasharray: 2.0,2.0;" x1="336" x2="383" y1="1165.2422" y2="1165.2422"/><polygon fill="#A80036" points="346,1161.2422,336,1165.2422,346,1169.2422,342,1165.2422" style="stroke: #A80036; stroke-width: 1.0;"/><text fill="#000000" font-family="sans-serif" font-size="13" lengthAdjust="spacingAndGlyphs" textLength="89" x="348" y="1147.1763">initCellEditor()</text><polygon fill="#A80036" points="182,1185.375,172,1189.375,182,1193.375,178,1189.375" style="stroke: #A80036; stroke-width: 1.0;"/><line style="stroke: #A80036; stroke-width: 1.0; stroke-dasharray: 2.0,2.0;" x1="176" x2="330" y1="1189.375" y2="1189.375"/><text fill="#000000" font-family="sans-serif" font-size="13" lengthAdjust="spacingAndGlyphs" textLength="42" x="188" y="1184.3091">show()</text><polygon fill="#A80036" points="38,1214.5078,28,1218.5078,38,1222.5078,34,1218.5078" style="stroke: #A80036; stroke-width: 1.0;"/><line style="stroke: #A80036; stroke-width: 1.0; stroke-dasharray: 2.0,2.0;" x1="32" x2="165" y1="1218.5078" y2="1218.5078"/><text fill="#000000" font-family="sans-serif" font-size="13" lengthAdjust="spacingAndGlyphs" textLength="74" x="44" y="1213.4419">double click</text><polygon fill="#A80036" points="154,1243.6406,164,1247.6406,154,1251.6406,158,1247.6406" style="stroke: #A80036; stroke-width: 1.0;"/><line style="stroke: #A80036; stroke-width: 1.0;" x1="27" x2="160" y1="1247.6406" y2="1247.6406"/><text fill="#000000" font-family="sans-serif" font-size="13" lengthAdjust="spacingAndGlyphs" textLength="76" x="34" y="1242.5747">change text</text><rect fill="#EEEEEE" filter="url(#ff0mth2jn1b6c)" height="3" style="stroke: #EEEEEE; stroke-width: 1.0;" width="1092" x="3" y="1276.207"/><line style="stroke: #000000; stroke-width: 1.0;" x1="3" x2="1095" y1="1276.207" y2="1276.207"/><line style="stroke: #000000; stroke-width: 1.0;" x1="3" x2="1095" y1="1279.207" y2="1279.207"/><rect fill="#EEEEEE" filter="url(#ff0mth2jn1b6c)" height="23.1328" style="stroke: #000000; stroke-width: 2.0;" width="142" x="478" y="1265.6406"/><text fill="#000000" font-family="sans-serif" font-size="13" font-weight="bold" lengthAdjust="spacingAndGlyphs" textLength="123" x="484" y="1281.7075">Close Direct Edit</text><polygon fill="#A80036" points="149,1315.9063,159,1319.9063,149,1323.9063,153,1319.9063" style="stroke: #A80036; stroke-width: 1.0;"/><line style="stroke: #A80036; stroke-width: 1.0;" x1="27" x2="155" y1="1319.9063" y2="1319.9063"/><text fill="#000000" font-family="sans-serif" font-size="13" lengthAdjust="spacingAndGlyphs" textLength="110" x="34" y="1314.8403">move focus away</text><polygon fill="#A80036" points="314,1345.0391,324,1349.0391,314,1353.0391,318,1349.0391" style="stroke: #A80036; stroke-width: 1.0;"/><line style="stroke: #A80036; stroke-width: 1.0;" x1="171" x2="320" y1="1349.0391" y2="1349.0391"/><text fill="#000000" font-family="sans-serif" font-size="13" lengthAdjust="spacingAndGlyphs" textLength="117" x="178" y="1343.9731">applyEditorValue()</text><line style="stroke: #A80036; stroke-width: 1.0;" x1="336" x2="383" y1="1373.1719" y2="1373.1719"/><line style="stroke: #A80036; stroke-width: 1.0;" x1="383" x2="383" y1="1373.1719" y2="1386.1719"/><line style="stroke: #A80036; stroke-width: 1.0;" x1="342" x2="383" y1="1386.1719" y2="1386.1719"/><polygon fill="#A80036" points="352,1382.1719,342,1386.1719,352,1390.1719,348,1386.1719" style="stroke: #A80036; stroke-width: 1.0;"/><text fill="#000000" font-family="sans-serif" font-size="13" lengthAdjust="spacingAndGlyphs" textLength="59" x="348" y="1368.106">commit()</text><polygon fill="#A80036" points="933,1401.1719,943,1405.1719,933,1409.1719,937,1405.1719" style="stroke: #A80036; stroke-width: 1.0;"/><line style="stroke: #A80036; stroke-width: 1.0;" x1="341" x2="939" y1="1405.1719" y2="1405.1719"/><rect fill="#FEFECE" filter="url(#ff0mth2jn1b6c)" height="30.2969" style="stroke: #A80036; stroke-width: 1.5;" width="141" x="945" y="1399.1719"/><text fill="#000000" font-family="sans-serif" font-size="14" lengthAdjust="spacingAndGlyphs" textLength="127" x="952" y="1419.167">ReplaceValueTask</text><polygon fill="#A80036" points="1000.5,1461.6016,1010.5,1465.6016,1000.5,1469.6016,1004.5,1465.6016" style="stroke: #A80036; stroke-width: 1.0;"/><line style="stroke: #A80036; stroke-width: 1.0;" x1="341" x2="1006.5" y1="1465.6016" y2="1465.6016"/><text fill="#000000" font-family="sans-serif" font-size="13" lengthAdjust="spacingAndGlyphs" textLength="61" x="348" y="1460.5356">execute()</text><polygon fill="#A80036" points="617,1490.7344,607,1494.7344,617,1498.7344,613,1494.7344" style="stroke: #A80036; stroke-width: 1.0;"/><line style="stroke: #A80036; stroke-width: 1.0;" x1="611" x2="1011.5" y1="1494.7344" y2="1494.7344"/><text fill="#000000" font-family="sans-serif" font-size="13" lengthAdjust="spacingAndGlyphs" textLength="59" x="623" y="1489.6685">commit()</text><polygon fill="#A80036" points="810.5,1519.8672,820.5,1523.8672,810.5,1527.8672,814.5,1523.8672" style="stroke: #A80036; stroke-width: 1.0;"/><line style="stroke: #A80036; stroke-width: 1.0;" x1="606" x2="816.5" y1="1523.8672" y2="1523.8672"/><text fill="#000000" font-family="sans-serif" font-size="13" lengthAdjust="spacingAndGlyphs" textLength="59" x="613" y="1518.8013">commit()</text><line style="stroke: #A80036; stroke-width: 1.0;" x1="832.5" x2="874.5" y1="1553" y2="1553"/><line style="stroke: #A80036; stroke-width: 1.0;" x1="874.5" x2="874.5" y1="1553" y2="1566"/><line style="stroke: #A80036; stroke-width: 1.0;" x1="833.5" x2="874.5" y1="1566" y2="1566"/><polygon fill="#A80036" points="843.5,1562,833.5,1566,843.5,1570,839.5,1566" style="stroke: #A80036; stroke-width: 1.0;"/><text fill="#000000" font-family="sans-serif" font-size="13" lengthAdjust="spacingAndGlyphs" textLength="90" x="839.5" y="1547.9341">adjustTarget()</text><line style="stroke: #A80036; stroke-width: 1.0;" x1="832.5" x2="879.5" y1="1590.1328" y2="1590.1328"/><line style="stroke: #A80036; stroke-width: 1.0;" x1="879.5" x2="879.5" y1="1590.1328" y2="1603.1328"/><line style="stroke: #A80036; stroke-width: 1.0;" x1="838.5" x2="879.5" y1="1603.1328" y2="1603.1328"/><polygon fill="#A80036" points="848.5,1599.1328,838.5,1603.1328,848.5,1607.1328,844.5,1603.1328" style="stroke: #A80036; stroke-width: 1.0;"/><text fill="#000000" font-family="sans-serif" font-size="13" lengthAdjust="spacingAndGlyphs" textLength="133" x="844.5" y="1585.0669">getValueToCommit()</text><polygon fill="#A80036" points="617,1633.2656,607,1637.2656,617,1641.2656,613,1637.2656" style="stroke: #A80036; stroke-width: 1.0;"/><line style="stroke: #A80036; stroke-width: 1.0;" x1="611" x2="826.5" y1="1637.2656" y2="1637.2656"/><text fill="#000000" font-family="sans-serif" font-size="13" lengthAdjust="spacingAndGlyphs" textLength="67" x="623" y="1632.1997">getValue()</text><line style="stroke: #A80036; stroke-width: 1.0; stroke-dasharray: 2.0,2.0;" x1="837.5" x2="879.5" y1="1656.2656" y2="1656.2656"/><line style="stroke: #A80036; stroke-width: 1.0; stroke-dasharray: 2.0,2.0;" x1="879.5" x2="879.5" y1="1656.2656" y2="1669.2656"/><line style="stroke: #A80036; stroke-width: 1.0; stroke-dasharray: 2.0,2.0;" x1="832.5" x2="879.5" y1="1669.2656" y2="1669.2656"/><polygon fill="#A80036" points="842.5,1665.2656,832.5,1669.2656,842.5,1673.2656,838.5,1669.2656" style="stroke: #A80036; stroke-width: 1.0;"/><polygon fill="#A80036" points="617,1689.3984,607,1693.3984,617,1697.3984,613,1693.3984" style="stroke: #A80036; stroke-width: 1.0;"/><line style="stroke: #A80036; stroke-width: 1.0; stroke-dasharray: 2.0,2.0;" x1="611" x2="826.5" y1="1693.3984" y2="1693.3984"/><text fill="#000000" font-family="sans-serif" font-size="13" lengthAdjust="spacingAndGlyphs" textLength="59" x="623" y="1688.3325">commit()</text><polygon fill="#A80036" points="1000.5,1718.5313,1010.5,1722.5313,1000.5,1726.5313,1004.5,1722.5313" style="stroke: #A80036; stroke-width: 1.0;"/><line style="stroke: #A80036; stroke-width: 1.0; stroke-dasharray: 2.0,2.0;" x1="601" x2="1006.5" y1="1722.5313" y2="1722.5313"/><text fill="#000000" font-family="sans-serif" font-size="13" lengthAdjust="spacingAndGlyphs" textLength="59" x="608" y="1717.4653">commit()</text><polygon fill="#A80036" points="352,1747.6641,342,1751.6641,352,1755.6641,348,1751.6641" style="stroke: #A80036; stroke-width: 1.0;"/><line style="stroke: #A80036; stroke-width: 1.0; stroke-dasharray: 2.0,2.0;" x1="346" x2="1016.5" y1="1751.6641" y2="1751.6641"/><text fill="#000000" font-family="sans-serif" font-size="13" lengthAdjust="spacingAndGlyphs" textLength="61" x="358" y="1746.5981">execute()</text><polygon fill="#A80036" points="1005.5,1761.6641,1015.5,1765.6641,1005.5,1769.6641,1009.5,1765.6641" style="stroke: #A80036; stroke-width: 1.0;"/><line style="stroke: #A80036; stroke-width: 1.0;" x1="341" x2="1011.5" y1="1765.6641" y2="1765.6641"/><line style="stroke: #A80036; stroke-width: 2.0;" x1="1008.5" x2="1026.5" y1="1756.6641" y2="1774.6641"/><line style="stroke: #A80036; stroke-width: 2.0;" x1="1008.5" x2="1026.5" y1="1774.6641" y2="1756.6641"/><line style="stroke: #A80036; stroke-width: 1.0; stroke-dasharray: 2.0,2.0;" x1="341" x2="383" y1="1799.7969" y2="1799.7969"/><line style="stroke: #A80036; stroke-width: 1.0; stroke-dasharray: 2.0,2.0;" x1="383" x2="383" y1="1799.7969" y2="1812.7969"/><line style="stroke: #A80036; stroke-width: 1.0; stroke-dasharray: 2.0,2.0;" x1="336" x2="383" y1="1812.7969" y2="1812.7969"/><polygon fill="#A80036" points="346,1808.7969,336,1812.7969,346,1816.7969,342,1812.7969" style="stroke: #A80036; stroke-width: 1.0;"/><text fill="#000000" font-family="sans-serif" font-size="13" lengthAdjust="spacingAndGlyphs" textLength="59" x="348" y="1794.731">commit()</text><polygon fill="#A80036" points="182,1832.9297,172,1836.9297,182,1840.9297,178,1836.9297" style="stroke: #A80036; stroke-width: 1.0;"/><line style="stroke: #A80036; stroke-width: 1.0; stroke-dasharray: 2.0,2.0;" x1="176" x2="330" y1="1836.9297" y2="1836.9297"/><text fill="#000000" font-family="sans-serif" font-size="13" lengthAdjust="spacingAndGlyphs" textLength="117" x="188" y="1831.8638">applyEditorValue()</text><polygon fill="#A80036" points="589,1846.9297,599,1850.9297,589,1854.9297,593,1850.9297" style="stroke: #A80036; stroke-width: 1.0;"/><line style="stroke: #A80036; stroke-width: 1.0;" x1="171" x2="595" y1="1850.9297" y2="1850.9297"/><line style="stroke: #A80036; stroke-width: 2.0;" x1="592" x2="610" y1="1841.9297" y2="1859.9297"/><line style="stroke: #A80036; stroke-width: 2.0;" x1="592" x2="610" y1="1859.9297" y2="1841.9297"/><polygon fill="#A80036" points="815.5,1860.9297,825.5,1864.9297,815.5,1868.9297,819.5,1864.9297" style="stroke: #A80036; stroke-width: 1.0;"/><line style="stroke: #A80036; stroke-width: 1.0;" x1="601" x2="821.5" y1="1864.9297" y2="1864.9297"/><line style="stroke: #A80036; stroke-width: 2.0;" x1="818.5" x2="836.5" y1="1855.9297" y2="1873.9297"/><line style="stroke: #A80036; stroke-width: 2.0;" x1="818.5" x2="836.5" y1="1873.9297" y2="1855.9297"/><polygon fill="#A80036" points="38,1890.0625,28,1894.0625,38,1898.0625,34,1894.0625" style="stroke: #A80036; stroke-width: 1.0;"/><line style="stroke: #A80036; stroke-width: 1.0; stroke-dasharray: 2.0,2.0;" x1="32" x2="165" y1="1894.0625" y2="1894.0625"/><text fill="#000000" font-family="sans-serif" font-size="13" lengthAdjust="spacingAndGlyphs" textLength="110" x="44" y="1888.9966">move focus away</text><!--
@startuml
hide footbox

actor User as user

control Eclipse as eclipse

participant "XtextSiriusDirectEditManagerValue" as editMgr
participant "XtextSiriusStyledTextCellEditorValue" as cellEditor
participant "XtextSiriusValueEditor" as valueEditor

participant ReplaceValueTask as replaceValueTask

title Direct Edit Value

== Open Direct Edit ==

user -> eclipse ++: double click

	eclipse -> editMgr ++: show()

		editMgr -> editMgr ++: createCellEditor()
			editMgr -> cellEditor **
			activate cellEditor
				cellEditor -> valueEditor **
				cellEditor -> valueEditor: setCallback(this)
			return
		return

		editMgr -> editMgr ++: initCellEditor()

			editMgr -> editMgr ++: setSemanticElement()
				editMgr -> cellEditor ++: setSemanticElement()
					cellEditor -> valueEditor: setSemanticElement()
				return

				editMgr -> cellEditor ++: setFallbackContainer()
					cellEditor -> valueEditor: setFallbackContainer()
				return
			return

			editMgr -> editMgr ++: setEditText()
				editMgr -> cellEditor ++: doSetValue()
					cellEditor -> valueEditor ++: doSetValue()
						valueEditor -> valueEditor ++: updateCallbackSetValue()
							valueEditor -> cellEditor ++: callbackSetValue()
								cellEditor -> cellEditor: super.doSetValue()
								cellEditor -> cellEditor: setVisibleRegion()
								cellEditor -> cellEditor: updateFakeResourceUri()
							return
						return
					return doSetValue()
				return doSetValue()
			return setEditText()

		return initCellEditor()
	return show()
return double click

user -> eclipse: change text

== Close Direct Edit ==

user -> eclipse ++: move focus away

	eclipse -> editMgr ++: applyEditorValue()
		editMgr -> editMgr ++: commit()
			editMgr -> replaceValueTask **
			editMgr -> replaceValueTask ++: execute()
				replaceValueTask -> cellEditor ++: commit()
					cellEditor -> valueEditor ++: commit()
						valueEditor -> valueEditor: adjustTarget()
						valueEditor -> valueEditor ++: getValueToCommit()
							valueEditor -> cellEditor: getValue()
						return
					return commit()
				return commit()
			return execute()
			editMgr -> replaceValueTask !!
		return commit()
	return applyEditorValue()

	eclipse -> cellEditor !!
	cellEditor -> valueEditor !!

return move focus away
@enduml

PlantUML version 1.2018.13(Mon Nov 26 17:11:51 GMT 2018)
(APACHE source distribution)
Java Runtime: OpenJDK Runtime Environment
JVM: OpenJDK 64-Bit Server VM
Java Version: 1.8.0_191-8u191-b12-2ubuntu0.16.04.1-b12
Operating System: Linux
OS Version: 4.4.0-43-Microsoft
Default Encoding: UTF-8
Language: en
Country: US
--></g></svg>